<svg width="402" height="884" viewBox="0 0 402 884" fill="none" xmlns="http://www.w3.org/2000/svg">
<rect width="393" height="884" fill="white"/>
<rect width="393" height="884" fill="#F7F9FB"/>
<g clip-path="url(#clip0_38_228)">
<g filter="url(#filter0_f_38_228)">
<rect x="41" y="-88.3899" width="400" height="400" rx="200" fill="#00113A" fill-opacity="0.05"/>
</g>
<g filter="url(#filter1_f_38_228)">
<rect x="-19.5" y="628.19" width="300" height="300" rx="150" fill="#D1E1F4" fill-opacity="0.2"/>
</g>
<rect x="161" y="188" width="80" height="67" rx="12" fill="#00113A"/>
<g filter="url(#filter2_dd_38_228)">
<rect x="161" y="188" width="80" height="67" rx="12" fill="white" fill-opacity="0.01" shape-rendering="crispEdges"/>
</g>
<path d="M201 235L190.5 229.3V220.3L184.5 217L201 208L217.5 217V229H214.5V218.65L211.5 220.3V229.3L201 235ZM201 222.55L211.275 217L201 211.45L190.725 217L201 222.55ZM201 231.587L208.5 227.538V221.875L201 226L193.5 221.875V227.538L201 231.587Z" fill="white"/>
<path d="M131.34 308V286.4H135.42V308H131.34ZM139.17 308V286.4H142.83L149.97 300.74L157.11 286.4H160.77V308H156.96V295.1L150.69 308H149.25L142.98 295.1V308H139.17ZM172.38 308.45C170.78 308.45 169.338 308.167 168.053 307.603C166.768 307.038 165.713 306.228 164.888 305.172C164.063 304.117 163.54 302.86 163.32 301.4L167.58 300.77C167.88 302.01 168.5 302.965 169.44 303.635C170.38 304.305 171.45 304.64 172.65 304.64C173.32 304.64 173.97 304.535 174.6 304.325C175.23 304.115 175.748 303.805 176.153 303.395C176.558 302.985 176.76 302.48 176.76 301.88C176.76 301.66 176.728 301.447 176.663 301.242C176.598 301.038 176.49 300.845 176.34 300.665C176.19 300.485 175.978 300.315 175.703 300.155C175.428 299.995 175.08 299.85 174.66 299.72L169.05 298.07C168.63 297.95 168.143 297.78 167.588 297.56C167.033 297.34 166.495 297.025 165.975 296.615C165.455 296.205 165.023 295.662 164.678 294.987C164.333 294.312 164.16 293.46 164.16 292.43C164.16 290.98 164.525 289.775 165.255 288.815C165.985 287.855 166.96 287.14 168.18 286.67C169.4 286.2 170.75 285.97 172.23 285.98C173.72 286 175.05 286.255 176.22 286.745C177.39 287.235 178.37 287.947 179.16 288.882C179.95 289.817 180.52 290.96 180.87 292.31L176.46 293.06C176.3 292.36 176.005 291.77 175.575 291.29C175.145 290.81 174.633 290.445 174.038 290.195C173.443 289.945 172.82 289.81 172.17 289.79C171.53 289.77 170.928 289.858 170.363 290.053C169.798 290.247 169.338 290.53 168.983 290.9C168.628 291.27 168.45 291.71 168.45 292.22C168.45 292.69 168.595 293.073 168.885 293.368C169.175 293.663 169.54 293.9 169.98 294.08C170.42 294.26 170.87 294.41 171.33 294.53L175.08 295.55C175.64 295.7 176.26 295.898 176.94 296.143C177.62 296.388 178.273 296.728 178.898 297.162C179.523 297.597 180.038 298.17 180.443 298.88C180.848 299.59 181.05 300.49 181.05 301.58C181.05 302.74 180.808 303.752 180.323 304.617C179.838 305.483 179.185 306.197 178.365 306.762C177.545 307.327 176.618 307.75 175.583 308.03C174.548 308.31 173.48 308.45 172.38 308.45ZM188.85 308V286.4H197.97C198.18 286.4 198.463 286.407 198.818 286.422C199.173 286.437 199.49 286.47 199.77 286.52C201.06 286.72 202.118 287.145 202.943 287.795C203.768 288.445 204.375 289.263 204.765 290.247C205.155 291.232 205.35 292.33 205.35 293.54C205.35 294.75 205.153 295.848 204.758 296.833C204.363 297.817 203.753 298.635 202.928 299.285C202.103 299.935 201.05 300.36 199.77 300.56C199.49 300.6 199.17 300.63 198.81 300.65C198.45 300.67 198.17 300.68 197.97 300.68H192.93V308H188.85ZM192.93 296.87H197.79C198 296.87 198.23 296.86 198.48 296.84C198.73 296.82 198.96 296.78 199.17 296.72C199.72 296.57 200.145 296.317 200.445 295.962C200.745 295.607 200.953 295.212 201.068 294.777C201.183 294.342 201.24 293.93 201.24 293.54C201.24 293.15 201.183 292.737 201.068 292.303C200.953 291.867 200.745 291.472 200.445 291.118C200.145 290.763 199.72 290.51 199.17 290.36C198.96 290.3 198.73 290.26 198.48 290.24C198.23 290.22 198 290.21 197.79 290.21H192.93V296.87ZM214.59 308.45C212.96 308.45 211.53 308.085 210.3 307.355C209.07 306.625 208.113 305.618 207.428 304.333C206.743 303.048 206.4 301.57 206.4 299.9C206.4 298.21 206.75 296.723 207.45 295.438C208.15 294.152 209.115 293.15 210.345 292.43C211.575 291.71 212.99 291.35 214.59 291.35C216.22 291.35 217.653 291.715 218.888 292.445C220.123 293.175 221.085 294.183 221.775 295.467C222.465 296.752 222.81 298.23 222.81 299.9C222.81 301.58 222.463 303.062 221.768 304.348C221.073 305.633 220.108 306.637 218.873 307.362C217.638 308.087 216.21 308.45 214.59 308.45ZM214.59 304.64C215.9 304.64 216.878 304.197 217.523 303.312C218.168 302.428 218.49 301.29 218.49 299.9C218.49 298.46 218.163 297.31 217.508 296.45C216.853 295.59 215.88 295.16 214.59 295.16C213.7 295.16 212.97 295.36 212.4 295.76C211.83 296.16 211.408 296.715 211.133 297.425C210.858 298.135 210.72 298.96 210.72 299.9C210.72 301.35 211.048 302.502 211.703 303.357C212.358 304.212 213.32 304.64 214.59 304.64ZM225.36 308V291.8H228.96V295.76L228.57 295.25C228.78 294.69 229.06 294.18 229.41 293.72C229.76 293.26 230.19 292.88 230.7 292.58C231.09 292.34 231.515 292.152 231.975 292.017C232.435 291.882 232.91 291.798 233.4 291.763C233.89 291.728 234.38 291.74 234.87 291.8V295.61C234.42 295.47 233.898 295.423 233.303 295.467C232.708 295.513 232.17 295.65 231.69 295.88C231.21 296.1 230.805 296.392 230.475 296.758C230.145 297.123 229.895 297.552 229.725 298.047C229.555 298.542 229.47 299.1 229.47 299.72V308H225.36ZM246.69 308C245.57 308.21 244.473 308.302 243.398 308.278C242.323 308.253 241.363 308.063 240.518 307.707C239.673 307.353 239.03 306.78 238.59 305.99C238.19 305.25 237.98 304.497 237.96 303.732C237.94 302.967 237.93 302.1 237.93 301.13V287.3H242.01V300.89C242.01 301.52 242.018 302.087 242.033 302.592C242.048 303.097 242.15 303.5 242.34 303.8C242.7 304.37 243.275 304.68 244.065 304.73C244.855 304.78 245.73 304.74 246.69 304.61V308ZM235.17 294.95V291.8H246.69V294.95H235.17ZM254.04 308.45C252.88 308.45 251.898 308.227 251.093 307.783C250.288 307.337 249.678 306.743 249.263 305.998C248.848 305.252 248.64 304.43 248.64 303.53C248.64 302.78 248.755 302.095 248.985 301.475C249.215 300.855 249.588 300.307 250.103 299.833C250.618 299.357 251.31 298.96 252.18 298.64C252.78 298.42 253.495 298.225 254.325 298.055C255.155 297.885 256.095 297.722 257.145 297.567C258.195 297.412 259.35 297.24 260.61 297.05L259.14 297.86C259.14 296.9 258.91 296.195 258.45 295.745C257.99 295.295 257.22 295.07 256.14 295.07C255.54 295.07 254.915 295.215 254.265 295.505C253.615 295.795 253.16 296.31 252.9 297.05L249.21 295.88C249.62 294.54 250.39 293.45 251.52 292.61C252.65 291.77 254.19 291.35 256.14 291.35C257.57 291.35 258.84 291.57 259.95 292.01C261.06 292.45 261.9 293.21 262.47 294.29C262.79 294.89 262.98 295.49 263.04 296.09C263.1 296.69 263.13 297.36 263.13 298.1V308H259.56V304.67L260.07 305.36C259.28 306.45 258.428 307.237 257.513 307.722C256.598 308.207 255.44 308.45 254.04 308.45ZM254.91 305.24C255.66 305.24 256.293 305.107 256.808 304.842C257.323 304.577 257.733 304.275 258.038 303.935C258.343 303.595 258.55 303.31 258.66 303.08C258.87 302.64 258.993 302.127 259.028 301.542C259.063 300.958 259.08 300.47 259.08 300.08L260.28 300.38C259.07 300.58 258.09 300.747 257.34 300.882C256.59 301.018 255.985 301.14 255.525 301.25C255.065 301.36 254.66 301.48 254.31 301.61C253.91 301.77 253.588 301.943 253.343 302.128C253.098 302.313 252.918 302.515 252.803 302.735C252.688 302.955 252.63 303.2 252.63 303.47C252.63 303.84 252.723 304.158 252.908 304.423C253.093 304.688 253.355 304.89 253.695 305.03C254.035 305.17 254.44 305.24 254.91 305.24ZM266.58 308V285.95H270.66V308H266.58Z" fill="#00113A"/>
<rect x="24.5" y="383.5" width="353" height="312" rx="11.5" fill="white"/>
<rect x="24.5" y="383.5" width="353" height="312" rx="11.5" stroke="black"/>
<g filter="url(#filter3_d_38_228)">
<rect x="24" y="383" width="354" height="313" rx="12" fill="white" fill-opacity="0.01" shape-rendering="crispEdges"/>
</g>
<path d="M60.7313 425.5V418.225H65.4566V419.323H62.0351V421.284H65.2051V422.368H62.0351V424.402H65.4777V425.5H60.7313ZM67.2859 425.5V418.225H69.2512L70.6336 421.981C70.6806 422.12 70.7342 422.299 70.7943 422.519C70.8545 422.738 70.9164 422.974 70.9802 423.228C71.0439 423.482 71.104 423.73 71.1605 423.972C71.2171 424.214 71.2647 424.429 71.3035 424.615H71.0404C71.0813 424.435 71.1297 424.225 71.1856 423.985C71.2416 423.745 71.3014 423.497 71.3651 423.242C71.4289 422.987 71.491 422.749 71.5517 422.526C71.6123 422.304 71.6661 422.122 71.7131 421.981L73.0764 418.225H75.0465V425.5H73.7449V421.828C73.7449 421.673 73.7469 421.484 73.7509 421.262C73.7549 421.04 73.7602 420.802 73.7668 420.548C73.7734 420.294 73.7798 420.038 73.7858 419.779C73.7919 419.52 73.796 419.274 73.798 419.042H73.8885C73.8236 419.297 73.7533 419.559 73.6773 419.828C73.6014 420.097 73.526 420.358 73.451 420.611C73.376 420.864 73.3048 421.095 73.2373 421.306C73.1699 421.516 73.1122 421.69 73.0643 421.828L71.7195 425.5H70.6133L69.2476 421.828C69.1997 421.692 69.1428 421.52 69.0768 421.313C69.0109 421.106 68.9398 420.878 68.8637 420.627C68.7875 420.376 68.7106 420.115 68.6331 419.844C68.5556 419.573 68.4796 419.306 68.4053 419.042H68.5125C68.5167 419.26 68.5218 419.496 68.5278 419.751C68.5339 420.006 68.5397 420.262 68.5453 420.519C68.5509 420.775 68.5562 421.017 68.5612 421.245C68.5662 421.472 68.5687 421.666 68.5687 421.828V425.5H67.2859ZM76.5217 425.5L79.0613 418.225H80.7191L83.3123 425.5H81.8822L80.5906 421.721C80.4646 421.33 80.3327 420.888 80.1951 420.396C80.0575 419.903 79.9056 419.342 79.7394 418.712H80.0137C79.8519 419.346 79.7047 419.912 79.5721 420.408C79.4394 420.905 79.3143 421.343 79.1969 421.721L77.9474 425.5H76.5217ZM78.001 423.697V422.648H81.833V423.697H78.001ZM86.0889 418.225V425.5H84.785V418.225H86.0889ZM88.0535 425.5V418.225H89.3574V424.402H92.5719V425.5H88.0535ZM100.342 425.598C99.706 425.598 99.136 425.45 98.6317 425.154C98.1275 424.858 97.7296 424.432 97.4379 423.875C97.1462 423.317 97.0004 422.648 97.0004 421.867C97.0004 421.082 97.1462 420.41 97.4379 419.852C97.7296 419.295 98.1275 418.868 98.6317 418.571C99.136 418.275 99.706 418.127 100.342 418.127C100.978 418.127 101.547 418.275 102.049 418.571C102.552 418.868 102.949 419.295 103.24 419.852C103.531 420.41 103.677 421.082 103.677 421.867C103.677 422.649 103.531 423.319 103.24 423.876C102.949 424.433 102.552 424.86 102.049 425.155C101.547 425.45 100.978 425.598 100.342 425.598ZM100.342 424.429C100.737 424.429 101.087 424.331 101.391 424.134C101.696 423.938 101.934 423.649 102.108 423.267C102.281 422.886 102.368 422.419 102.368 421.867C102.368 421.31 102.281 420.84 102.108 420.458C101.934 420.076 101.696 419.786 101.391 419.59C101.087 419.394 100.737 419.296 100.342 419.296C99.9454 419.296 99.5946 419.394 99.2893 419.592C98.9841 419.789 98.7445 420.079 98.5706 420.461C98.3967 420.844 98.3098 421.312 98.3098 421.867C98.3098 422.419 98.3967 422.885 98.5706 423.266C98.7445 423.647 98.9841 423.936 99.2893 424.133C99.5946 424.33 99.9454 424.429 100.342 424.429ZM105.413 425.5V418.225H108.135C108.692 418.225 109.161 418.322 109.541 418.517C109.921 418.712 110.209 418.984 110.404 419.334C110.599 419.683 110.696 420.089 110.696 420.552C110.696 421.016 110.598 421.419 110.401 421.761C110.205 422.102 109.915 422.365 109.531 422.551C109.148 422.736 108.675 422.829 108.114 422.829H106.173V421.749H107.941C108.272 421.749 108.541 421.702 108.75 421.609C108.959 421.516 109.113 421.381 109.213 421.203C109.314 421.025 109.364 420.808 109.364 420.552C109.364 420.291 109.314 420.069 109.213 419.886C109.113 419.703 108.958 419.562 108.748 419.463C108.538 419.365 108.267 419.316 107.935 419.316H106.717V425.5H105.413ZM109.505 425.5L107.74 422.201H109.164L110.966 425.5H109.505ZM118.406 425.607C117.815 425.607 117.297 425.495 116.854 425.272C116.411 425.05 116.067 424.74 115.822 424.344C115.578 423.948 115.456 423.491 115.456 422.973V418.225H116.76V422.867C116.76 423.172 116.827 423.443 116.963 423.679C117.098 423.916 117.289 424.102 117.535 424.238C117.781 424.374 118.071 424.441 118.406 424.441C118.742 424.441 119.033 424.374 119.279 424.238C119.524 424.102 119.714 423.916 119.849 423.679C119.983 423.443 120.05 423.172 120.05 422.867V418.225H121.354V422.973C121.354 423.491 121.231 423.948 120.987 424.344C120.742 424.74 120.398 425.05 119.956 425.272C119.515 425.495 118.998 425.607 118.406 425.607ZM125.87 425.613C125.307 425.613 124.818 425.525 124.402 425.349C123.985 425.174 123.661 424.918 123.427 424.583C123.194 424.247 123.067 423.84 123.047 423.36H124.332C124.353 423.615 124.433 423.827 124.571 423.995C124.708 424.164 124.89 424.29 125.114 424.373C125.338 424.456 125.587 424.498 125.86 424.498C126.146 424.498 126.399 424.454 126.618 424.367C126.838 424.279 127.009 424.156 127.134 423.998C127.258 423.84 127.32 423.656 127.32 423.448C127.32 423.259 127.265 423.102 127.156 422.978C127.046 422.855 126.893 422.75 126.696 422.665C126.499 422.58 126.268 422.505 126.004 422.439L125.178 422.223C124.572 422.068 124.099 421.832 123.758 421.515C123.416 421.198 123.246 420.783 123.246 420.27C123.246 419.841 123.361 419.465 123.593 419.144C123.825 418.822 124.141 418.572 124.542 418.394C124.942 418.216 125.396 418.127 125.904 418.127C126.422 418.127 126.876 418.217 127.266 418.396C127.655 418.575 127.96 418.822 128.18 419.137C128.4 419.452 128.515 419.812 128.525 420.219H127.262C127.229 419.906 127.089 419.664 126.842 419.493C126.596 419.321 126.277 419.236 125.885 419.236C125.612 419.236 125.377 419.277 125.179 419.359C124.981 419.442 124.829 419.555 124.724 419.699C124.618 419.843 124.565 420.008 124.565 420.192C124.565 420.396 124.628 420.562 124.753 420.692C124.878 420.822 125.036 420.927 125.227 421.005C125.417 421.083 125.61 421.146 125.804 421.195L126.485 421.369C126.754 421.433 127.016 421.519 127.27 421.628C127.525 421.736 127.754 421.873 127.958 422.037C128.162 422.201 128.323 422.4 128.443 422.633C128.563 422.867 128.622 423.142 128.622 423.458C128.622 423.884 128.514 424.26 128.297 424.584C128.079 424.908 127.766 425.161 127.355 425.342C126.945 425.522 126.45 425.613 125.87 425.613ZM130.318 425.5V418.225H135.044V419.323H131.622V421.284H134.792V422.368H131.622V424.402H135.065V425.5H130.318ZM136.873 425.5V418.225H139.595C140.152 418.225 140.621 418.322 141.001 418.517C141.381 418.712 141.669 418.984 141.864 419.334C142.059 419.683 142.156 420.089 142.156 420.552C142.156 421.016 142.058 421.419 141.861 421.761C141.665 422.102 141.375 422.365 140.991 422.551C140.608 422.736 140.135 422.829 139.574 422.829H137.633V421.749H139.401C139.732 421.749 140.001 421.702 140.21 421.609C140.418 421.516 140.573 421.381 140.673 421.203C140.774 421.025 140.824 420.808 140.824 420.552C140.824 420.291 140.774 420.069 140.673 419.886C140.573 419.703 140.418 419.562 140.208 419.463C139.998 419.365 139.727 419.316 139.395 419.316H138.177V425.5H136.873ZM140.965 425.5L139.2 422.201H140.624L142.426 425.5H140.965ZM143.896 425.5V418.225H145.37L147.888 422.231C147.991 422.397 148.102 422.585 148.22 422.795C148.338 423.005 148.46 423.24 148.586 423.499C148.712 423.758 148.838 424.046 148.963 424.362H148.817C148.792 424.088 148.771 423.806 148.754 423.518C148.737 423.23 148.724 422.956 148.715 422.697C148.706 422.439 148.701 422.22 148.701 422.041V418.225H150.026V425.5H148.546L146.277 421.894C146.134 421.662 145.999 421.434 145.871 421.209C145.743 420.985 145.606 420.73 145.46 420.447C145.313 420.163 145.136 419.821 144.929 419.42H145.112C145.132 419.775 145.15 420.111 145.167 420.428C145.184 420.746 145.198 421.03 145.209 421.28C145.219 421.53 145.224 421.733 145.224 421.887V425.5H143.896ZM151.501 425.5L154.041 418.225H155.699L158.292 425.5H156.862L155.57 421.721C155.444 421.33 155.312 420.888 155.175 420.396C155.037 419.903 154.885 419.342 154.719 418.712H154.993C154.831 419.346 154.684 419.912 154.552 420.408C154.419 420.905 154.294 421.343 154.176 421.721L152.927 425.5H151.501ZM152.98 423.697V422.648H156.812V423.697H152.98ZM159.764 425.5V418.225H161.73L163.112 421.981C163.159 422.12 163.213 422.299 163.273 422.519C163.333 422.738 163.395 422.974 163.459 423.228C163.522 423.482 163.583 423.73 163.639 423.972C163.696 424.214 163.743 424.429 163.782 424.615H163.519C163.56 424.435 163.608 424.225 163.664 423.985C163.72 423.745 163.78 423.497 163.844 423.242C163.907 422.987 163.97 422.749 164.03 422.526C164.091 422.304 164.145 422.122 164.192 421.981L165.555 418.225H167.525V425.5H166.223V421.828C166.223 421.673 166.225 421.484 166.229 421.262C166.233 421.04 166.239 420.802 166.245 420.548C166.252 420.294 166.258 420.038 166.264 419.779C166.27 419.52 166.274 419.274 166.277 419.042H166.367C166.302 419.297 166.232 419.559 166.156 419.828C166.08 420.097 166.004 420.358 165.929 420.611C165.854 420.864 165.783 421.095 165.716 421.306C165.648 421.516 165.591 421.69 165.543 421.828L164.198 425.5H163.092L161.726 421.828C161.678 421.692 161.621 421.52 161.555 421.313C161.489 421.106 161.418 420.878 161.342 420.627C161.266 420.376 161.189 420.115 161.112 419.844C161.034 419.573 160.958 419.306 160.884 419.042H160.991C160.995 419.26 161 419.496 161.006 419.751C161.012 420.006 161.018 420.262 161.024 420.519C161.029 420.775 161.035 421.017 161.04 421.245C161.045 421.472 161.047 421.666 161.047 421.828V425.5H159.764ZM169.488 425.5V418.225H174.213V419.323H170.792V421.284H173.962V422.368H170.792V424.402H174.235V425.5H169.488Z" fill="#50606F"/>
<rect x="56" y="436" width="290" height="51" rx="8" fill="#F2F4F6"/>
<g clip-path="url(#clip1_38_228)">
<path d="M103.795 467.205C103.242 467.205 102.741 467.1 102.29 466.892C101.839 466.68 101.481 466.375 101.216 465.977C100.951 465.576 100.818 465.091 100.818 464.523C100.818 464.023 100.917 463.617 101.114 463.307C101.311 462.992 101.574 462.746 101.903 462.568C102.233 462.39 102.597 462.258 102.994 462.17C103.396 462.08 103.799 462.008 104.205 461.955C104.735 461.886 105.165 461.835 105.494 461.801C105.828 461.763 106.07 461.701 106.222 461.614C106.377 461.527 106.455 461.375 106.455 461.159V461.114C106.455 460.553 106.301 460.117 105.994 459.807C105.691 459.496 105.231 459.341 104.614 459.341C103.973 459.341 103.472 459.481 103.108 459.761C102.744 460.042 102.489 460.341 102.341 460.659L101.068 460.205C101.295 459.674 101.598 459.261 101.977 458.966C102.36 458.667 102.777 458.458 103.227 458.341C103.682 458.22 104.129 458.159 104.568 458.159C104.848 458.159 105.17 458.193 105.534 458.261C105.902 458.326 106.256 458.46 106.597 458.665C106.941 458.869 107.227 459.178 107.455 459.591C107.682 460.004 107.795 460.557 107.795 461.25V467H106.455V465.818H106.386C106.295 466.008 106.144 466.21 105.932 466.426C105.72 466.642 105.438 466.826 105.085 466.977C104.733 467.129 104.303 467.205 103.795 467.205ZM104 466C104.53 466 104.977 465.896 105.341 465.688C105.708 465.479 105.985 465.21 106.17 464.881C106.36 464.551 106.455 464.205 106.455 463.841V462.614C106.398 462.682 106.273 462.744 106.08 462.801C105.89 462.854 105.67 462.902 105.42 462.943C105.174 462.981 104.934 463.015 104.699 463.045C104.468 463.072 104.28 463.095 104.136 463.114C103.788 463.159 103.462 463.233 103.159 463.335C102.86 463.434 102.617 463.583 102.432 463.784C102.25 463.981 102.159 464.25 102.159 464.591C102.159 465.057 102.331 465.409 102.676 465.648C103.025 465.883 103.466 466 104 466ZM113.538 467.182C112.811 467.182 112.169 466.998 111.612 466.631C111.055 466.259 110.62 465.737 110.305 465.062C109.991 464.384 109.834 463.583 109.834 462.659C109.834 461.742 109.991 460.947 110.305 460.273C110.62 459.598 111.057 459.078 111.618 458.71C112.179 458.343 112.826 458.159 113.561 458.159C114.129 458.159 114.578 458.254 114.908 458.443C115.241 458.629 115.495 458.841 115.669 459.08C115.847 459.314 115.985 459.508 116.084 459.659H116.197V455.364H117.538V467H116.243V465.659H116.084C115.985 465.818 115.845 466.019 115.663 466.261C115.482 466.5 115.222 466.714 114.885 466.903C114.548 467.089 114.099 467.182 113.538 467.182ZM113.72 465.977C114.258 465.977 114.713 465.837 115.084 465.557C115.455 465.273 115.737 464.881 115.93 464.381C116.124 463.877 116.22 463.295 116.22 462.636C116.22 461.985 116.125 461.415 115.936 460.926C115.747 460.434 115.466 460.051 115.095 459.778C114.724 459.502 114.266 459.364 113.72 459.364C113.152 459.364 112.679 459.509 112.3 459.801C111.925 460.089 111.643 460.481 111.453 460.977C111.268 461.47 111.175 462.023 111.175 462.636C111.175 463.258 111.269 463.822 111.459 464.33C111.652 464.833 111.936 465.235 112.311 465.534C112.69 465.83 113.16 465.977 113.72 465.977ZM120.18 467V458.273H121.476V459.636H121.589C121.771 459.17 122.065 458.809 122.47 458.551C122.875 458.29 123.362 458.159 123.93 458.159C124.506 458.159 124.985 458.29 125.368 458.551C125.754 458.809 126.055 459.17 126.271 459.636H126.362C126.586 459.186 126.921 458.828 127.368 458.562C127.815 458.294 128.351 458.159 128.976 458.159C129.756 458.159 130.394 458.403 130.891 458.892C131.387 459.377 131.635 460.133 131.635 461.159V467H130.294V461.159C130.294 460.515 130.118 460.055 129.766 459.778C129.413 459.502 128.999 459.364 128.521 459.364C127.908 459.364 127.432 459.549 127.095 459.92C126.758 460.288 126.589 460.754 126.589 461.318V467H125.226V461.023C125.226 460.527 125.065 460.127 124.743 459.824C124.421 459.517 124.006 459.364 123.499 459.364C123.15 459.364 122.824 459.456 122.521 459.642C122.222 459.828 121.98 460.085 121.794 460.415C121.612 460.741 121.521 461.117 121.521 461.545V467H120.18ZM134.087 467V458.273H135.428V467H134.087ZM134.768 456.818C134.507 456.818 134.282 456.729 134.092 456.551C133.907 456.373 133.814 456.159 133.814 455.909C133.814 455.659 133.907 455.445 134.092 455.267C134.282 455.089 134.507 455 134.768 455C135.03 455 135.253 455.089 135.439 455.267C135.628 455.445 135.723 455.659 135.723 455.909C135.723 456.159 135.628 456.373 135.439 456.551C135.253 456.729 135.03 456.818 134.768 456.818ZM139.224 461.75V467H137.884V458.273H139.179V459.636H139.293C139.497 459.193 139.808 458.837 140.224 458.568C140.641 458.295 141.179 458.159 141.838 458.159C142.429 458.159 142.946 458.28 143.389 458.523C143.832 458.761 144.177 459.125 144.423 459.614C144.67 460.098 144.793 460.712 144.793 461.455V467H143.452V461.545C143.452 460.86 143.274 460.326 142.918 459.943C142.562 459.557 142.073 459.364 141.452 459.364C141.024 459.364 140.641 459.456 140.304 459.642C139.971 459.828 139.707 460.098 139.514 460.455C139.321 460.811 139.224 461.242 139.224 461.75ZM147.243 467V458.273H148.584V467H147.243ZM147.925 456.818C147.663 456.818 147.438 456.729 147.249 456.551C147.063 456.373 146.97 456.159 146.97 455.909C146.97 455.659 147.063 455.445 147.249 455.267C147.438 455.089 147.663 455 147.925 455C148.186 455 148.41 455.089 148.595 455.267C148.785 455.445 148.879 455.659 148.879 455.909C148.879 456.159 148.785 456.373 148.595 456.551C148.41 456.729 148.186 456.818 147.925 456.818ZM157.222 460.227L156.017 460.568C155.941 460.367 155.83 460.172 155.682 459.983C155.538 459.79 155.341 459.631 155.091 459.506C154.841 459.381 154.521 459.318 154.131 459.318C153.597 459.318 153.152 459.441 152.795 459.688C152.443 459.93 152.267 460.239 152.267 460.614C152.267 460.947 152.388 461.21 152.631 461.403C152.873 461.597 153.252 461.758 153.767 461.886L155.062 462.205C155.843 462.394 156.424 462.684 156.807 463.074C157.189 463.46 157.381 463.958 157.381 464.568C157.381 465.068 157.237 465.515 156.949 465.909C156.665 466.303 156.267 466.614 155.756 466.841C155.244 467.068 154.65 467.182 153.972 467.182C153.081 467.182 152.345 466.989 151.761 466.602C151.178 466.216 150.809 465.652 150.653 464.909L151.926 464.591C152.047 465.061 152.277 465.413 152.614 465.648C152.955 465.883 153.4 466 153.949 466C154.574 466 155.07 465.867 155.438 465.602C155.809 465.333 155.994 465.011 155.994 464.636C155.994 464.333 155.888 464.08 155.676 463.875C155.464 463.667 155.138 463.511 154.699 463.409L153.244 463.068C152.445 462.879 151.858 462.585 151.483 462.188C151.112 461.786 150.926 461.284 150.926 460.682C150.926 460.189 151.064 459.754 151.341 459.375C151.621 458.996 152.002 458.699 152.483 458.483C152.968 458.267 153.517 458.159 154.131 458.159C154.994 458.159 155.672 458.348 156.165 458.727C156.661 459.106 157.013 459.606 157.222 460.227ZM163.195 458.273V459.409H158.672V458.273H163.195ZM159.99 456.182H161.331V464.5C161.331 464.879 161.386 465.163 161.496 465.352C161.609 465.538 161.753 465.663 161.928 465.727C162.106 465.788 162.293 465.818 162.49 465.818C162.638 465.818 162.759 465.811 162.854 465.795C162.948 465.777 163.024 465.761 163.081 465.75L163.354 466.955C163.263 466.989 163.136 467.023 162.973 467.057C162.81 467.095 162.604 467.114 162.354 467.114C161.975 467.114 161.604 467.032 161.24 466.869C160.88 466.706 160.581 466.458 160.342 466.125C160.107 465.792 159.99 465.371 159.99 464.864V456.182ZM165.212 467V458.273H166.507V459.591H166.598C166.757 459.159 167.045 458.809 167.462 458.54C167.878 458.271 168.348 458.136 168.871 458.136C168.969 458.136 169.092 458.138 169.24 458.142C169.388 458.146 169.5 458.152 169.575 458.159V459.523C169.53 459.511 169.426 459.494 169.263 459.472C169.104 459.445 168.935 459.432 168.757 459.432C168.333 459.432 167.954 459.521 167.621 459.699C167.291 459.873 167.03 460.116 166.837 460.426C166.647 460.733 166.553 461.083 166.553 461.477V467H165.212ZM173.733 467.205C173.18 467.205 172.678 467.1 172.227 466.892C171.777 466.68 171.419 466.375 171.153 465.977C170.888 465.576 170.756 465.091 170.756 464.523C170.756 464.023 170.854 463.617 171.051 463.307C171.248 462.992 171.511 462.746 171.841 462.568C172.17 462.39 172.534 462.258 172.932 462.17C173.333 462.08 173.737 462.008 174.142 461.955C174.672 461.886 175.102 461.835 175.432 461.801C175.765 461.763 176.008 461.701 176.159 461.614C176.314 461.527 176.392 461.375 176.392 461.159V461.114C176.392 460.553 176.239 460.117 175.932 459.807C175.629 459.496 175.169 459.341 174.551 459.341C173.911 459.341 173.409 459.481 173.045 459.761C172.682 460.042 172.426 460.341 172.278 460.659L171.006 460.205C171.233 459.674 171.536 459.261 171.915 458.966C172.297 458.667 172.714 458.458 173.165 458.341C173.619 458.22 174.066 458.159 174.506 458.159C174.786 458.159 175.108 458.193 175.472 458.261C175.839 458.326 176.193 458.46 176.534 458.665C176.879 458.869 177.165 459.178 177.392 459.591C177.619 460.004 177.733 460.557 177.733 461.25V467H176.392V465.818H176.324C176.233 466.008 176.081 466.21 175.869 466.426C175.657 466.642 175.375 466.826 175.023 466.977C174.67 467.129 174.241 467.205 173.733 467.205ZM173.938 466C174.468 466 174.915 465.896 175.278 465.688C175.646 465.479 175.922 465.21 176.108 464.881C176.297 464.551 176.392 464.205 176.392 463.841V462.614C176.335 462.682 176.21 462.744 176.017 462.801C175.828 462.854 175.608 462.902 175.358 462.943C175.112 462.981 174.871 463.015 174.636 463.045C174.405 463.072 174.218 463.095 174.074 463.114C173.725 463.159 173.4 463.233 173.097 463.335C172.797 463.434 172.555 463.583 172.369 463.784C172.188 463.981 172.097 464.25 172.097 464.591C172.097 465.057 172.269 465.409 172.614 465.648C172.962 465.883 173.403 466 173.938 466ZM183.976 458.273V459.409H179.453V458.273H183.976ZM180.771 456.182H182.112V464.5C182.112 464.879 182.167 465.163 182.277 465.352C182.391 465.538 182.535 465.663 182.709 465.727C182.887 465.788 183.074 465.818 183.271 465.818C183.419 465.818 183.54 465.811 183.635 465.795C183.73 465.777 183.805 465.761 183.862 465.75L184.135 466.955C184.044 466.989 183.917 467.023 183.754 467.057C183.591 467.095 183.385 467.114 183.135 467.114C182.756 467.114 182.385 467.032 182.021 466.869C181.661 466.706 181.362 466.458 181.124 466.125C180.889 465.792 180.771 465.371 180.771 464.864V456.182ZM189.445 467.182C188.657 467.182 187.965 466.994 187.371 466.619C186.78 466.244 186.318 465.72 185.984 465.045C185.655 464.371 185.49 463.583 185.49 462.682C185.49 461.773 185.655 460.979 185.984 460.301C186.318 459.623 186.78 459.097 187.371 458.722C187.965 458.347 188.657 458.159 189.445 458.159C190.232 458.159 190.922 458.347 191.513 458.722C192.107 459.097 192.57 459.623 192.899 460.301C193.232 460.979 193.399 461.773 193.399 462.682C193.399 463.583 193.232 464.371 192.899 465.045C192.57 465.72 192.107 466.244 191.513 466.619C190.922 466.994 190.232 467.182 189.445 467.182ZM189.445 465.977C190.043 465.977 190.536 465.824 190.922 465.517C191.308 465.21 191.594 464.807 191.78 464.307C191.965 463.807 192.058 463.265 192.058 462.682C192.058 462.098 191.965 461.555 191.78 461.051C191.594 460.547 191.308 460.14 190.922 459.83C190.536 459.519 190.043 459.364 189.445 459.364C188.846 459.364 188.354 459.519 187.967 459.83C187.581 460.14 187.295 460.547 187.109 461.051C186.924 461.555 186.831 462.098 186.831 462.682C186.831 463.265 186.924 463.807 187.109 464.307C187.295 464.807 187.581 465.21 187.967 465.517C188.354 465.824 188.846 465.977 189.445 465.977ZM195.446 467V458.273H196.741V459.591H196.832C196.991 459.159 197.279 458.809 197.696 458.54C198.113 458.271 198.582 458.136 199.105 458.136C199.204 458.136 199.327 458.138 199.474 458.142C199.622 458.146 199.734 458.152 199.81 458.159V459.523C199.764 459.511 199.66 459.494 199.497 459.472C199.338 459.445 199.17 459.432 198.991 459.432C198.567 459.432 198.188 459.521 197.855 459.699C197.526 459.873 197.264 460.116 197.071 460.426C196.882 460.733 196.787 461.083 196.787 461.477V467H195.446ZM208.104 470.068C206.945 470.068 205.92 469.909 205.03 469.591C204.14 469.277 203.392 468.813 202.786 468.199C202.179 467.585 201.721 466.833 201.411 465.943C201.1 465.053 200.945 464.034 200.945 462.886C200.945 461.777 201.102 460.784 201.416 459.909C201.734 459.034 202.195 458.292 202.797 457.682C203.403 457.068 204.138 456.6 205.001 456.278C205.869 455.956 206.85 455.795 207.945 455.795C209.009 455.795 209.941 455.97 210.74 456.318C211.543 456.663 212.214 457.131 212.751 457.722C213.293 458.309 213.698 458.97 213.967 459.705C214.24 460.439 214.376 461.197 214.376 461.977C214.376 462.527 214.35 463.083 214.297 463.648C214.244 464.212 214.132 464.731 213.962 465.205C213.791 465.674 213.528 466.053 213.172 466.341C212.82 466.629 212.342 466.773 211.74 466.773C211.475 466.773 211.183 466.731 210.865 466.648C210.547 466.564 210.265 466.426 210.018 466.233C209.772 466.04 209.626 465.78 209.581 465.455H209.513C209.422 465.674 209.282 465.883 209.092 466.08C208.907 466.277 208.662 466.434 208.359 466.551C208.06 466.669 207.695 466.72 207.263 466.705C206.77 466.686 206.337 466.576 205.962 466.375C205.587 466.17 205.272 465.894 205.018 465.545C204.768 465.193 204.579 464.786 204.45 464.324C204.325 463.858 204.263 463.356 204.263 462.818C204.263 462.307 204.339 461.839 204.49 461.415C204.642 460.991 204.852 460.619 205.121 460.301C205.393 459.983 205.712 459.729 206.075 459.54C206.443 459.347 206.839 459.227 207.263 459.182C207.642 459.144 207.986 459.161 208.297 459.233C208.607 459.301 208.863 459.405 209.064 459.545C209.265 459.682 209.392 459.833 209.445 460H209.513V459.364H210.717V464.5C210.717 464.818 210.806 465.098 210.984 465.341C211.162 465.583 211.422 465.705 211.763 465.705C212.149 465.705 212.445 465.572 212.649 465.307C212.857 465.042 213 464.633 213.075 464.08C213.155 463.527 213.195 462.818 213.195 461.955C213.195 461.447 213.125 460.947 212.984 460.455C212.848 459.958 212.64 459.494 212.359 459.062C212.083 458.631 211.732 458.25 211.308 457.92C210.884 457.591 210.386 457.333 209.814 457.148C209.246 456.958 208.6 456.864 207.876 456.864C206.986 456.864 206.189 457.002 205.484 457.278C204.784 457.551 204.187 457.951 203.695 458.477C203.206 459 202.833 459.636 202.575 460.386C202.321 461.133 202.195 461.981 202.195 462.932C202.195 463.898 202.321 464.756 202.575 465.506C202.833 466.256 203.212 466.888 203.712 467.403C204.215 467.919 204.839 468.309 205.581 468.574C206.323 468.843 207.179 468.977 208.149 468.977C208.566 468.977 208.977 468.938 209.382 468.858C209.787 468.778 210.145 468.691 210.456 468.597C210.767 468.502 210.99 468.432 211.126 468.386L211.445 469.432C211.21 469.53 210.903 469.629 210.524 469.727C210.149 469.826 209.748 469.907 209.32 469.972C208.895 470.036 208.49 470.068 208.104 470.068ZM207.445 465.545C207.952 465.545 208.363 465.443 208.678 465.239C208.992 465.034 209.221 464.725 209.365 464.312C209.509 463.9 209.581 463.379 209.581 462.75C209.581 462.114 209.501 461.617 209.342 461.261C209.183 460.905 208.948 460.655 208.638 460.511C208.327 460.367 207.945 460.295 207.49 460.295C207.058 460.295 206.689 460.409 206.382 460.636C206.079 460.86 205.846 461.159 205.683 461.534C205.524 461.905 205.445 462.311 205.445 462.75C205.445 463.235 205.509 463.691 205.638 464.119C205.767 464.544 205.977 464.888 206.268 465.153C206.56 465.415 206.952 465.545 207.445 465.545ZM216.384 467V458.273H217.724V467H216.384ZM217.065 456.818C216.804 456.818 216.579 456.729 216.389 456.551C216.204 456.373 216.111 456.159 216.111 455.909C216.111 455.659 216.204 455.445 216.389 455.267C216.579 455.089 216.804 455 217.065 455C217.327 455 217.55 455.089 217.736 455.267C217.925 455.445 218.02 455.659 218.02 455.909C218.02 456.159 217.925 456.373 217.736 456.551C217.55 456.729 217.327 456.818 217.065 456.818ZM221.521 461.75V467H220.18V458.273H221.476V459.636H221.589C221.794 459.193 222.105 458.837 222.521 458.568C222.938 458.295 223.476 458.159 224.135 458.159C224.726 458.159 225.243 458.28 225.686 458.523C226.129 458.761 226.474 459.125 226.72 459.614C226.966 460.098 227.089 460.712 227.089 461.455V467H225.749V461.545C225.749 460.86 225.571 460.326 225.214 459.943C224.858 459.557 224.37 459.364 223.749 459.364C223.321 459.364 222.938 459.456 222.601 459.642C222.268 459.828 222.004 460.098 221.811 460.455C221.618 460.811 221.521 461.242 221.521 461.75ZM235.722 460.227L234.517 460.568C234.441 460.367 234.33 460.172 234.182 459.983C234.038 459.79 233.841 459.631 233.591 459.506C233.341 459.381 233.021 459.318 232.631 459.318C232.097 459.318 231.652 459.441 231.295 459.688C230.943 459.93 230.767 460.239 230.767 460.614C230.767 460.947 230.888 461.21 231.131 461.403C231.373 461.597 231.752 461.758 232.267 461.886L233.562 462.205C234.343 462.394 234.924 462.684 235.307 463.074C235.689 463.46 235.881 463.958 235.881 464.568C235.881 465.068 235.737 465.515 235.449 465.909C235.165 466.303 234.767 466.614 234.256 466.841C233.744 467.068 233.15 467.182 232.472 467.182C231.581 467.182 230.845 466.989 230.261 466.602C229.678 466.216 229.309 465.652 229.153 464.909L230.426 464.591C230.547 465.061 230.777 465.413 231.114 465.648C231.455 465.883 231.9 466 232.449 466C233.074 466 233.57 465.867 233.938 465.602C234.309 465.333 234.494 465.011 234.494 464.636C234.494 464.333 234.388 464.08 234.176 463.875C233.964 463.667 233.638 463.511 233.199 463.409L231.744 463.068C230.945 462.879 230.358 462.585 229.983 462.188C229.612 461.786 229.426 461.284 229.426 460.682C229.426 460.189 229.564 459.754 229.841 459.375C230.121 458.996 230.502 458.699 230.983 458.483C231.468 458.267 232.017 458.159 232.631 458.159C233.494 458.159 234.172 458.348 234.665 458.727C235.161 459.106 235.513 459.606 235.722 460.227ZM241.695 458.273V459.409H237.172V458.273H241.695ZM238.49 456.182H239.831V464.5C239.831 464.879 239.886 465.163 239.996 465.352C240.109 465.538 240.253 465.663 240.428 465.727C240.606 465.788 240.793 465.818 240.99 465.818C241.138 465.818 241.259 465.811 241.354 465.795C241.448 465.777 241.524 465.761 241.581 465.75L241.854 466.955C241.763 466.989 241.636 467.023 241.473 467.057C241.31 467.095 241.104 467.114 240.854 467.114C240.475 467.114 240.104 467.032 239.74 466.869C239.38 466.706 239.081 466.458 238.842 466.125C238.607 465.792 238.49 465.371 238.49 464.864V456.182ZM243.712 467V458.273H245.053V467H243.712ZM244.393 456.818C244.132 456.818 243.907 456.729 243.717 456.551C243.532 456.373 243.439 456.159 243.439 455.909C243.439 455.659 243.532 455.445 243.717 455.267C243.907 455.089 244.132 455 244.393 455C244.655 455 244.878 455.089 245.064 455.267C245.253 455.445 245.348 455.659 245.348 455.909C245.348 456.159 245.253 456.373 245.064 456.551C244.878 456.729 244.655 456.818 244.393 456.818ZM251.304 458.273V459.409H246.781V458.273H251.304ZM248.099 456.182H249.44V464.5C249.44 464.879 249.495 465.163 249.605 465.352C249.719 465.538 249.863 465.663 250.037 465.727C250.215 465.788 250.402 465.818 250.599 465.818C250.747 465.818 250.868 465.811 250.963 465.795C251.058 465.777 251.134 465.761 251.19 465.75L251.463 466.955C251.372 466.989 251.245 467.023 251.082 467.057C250.92 467.095 250.713 467.114 250.463 467.114C250.084 467.114 249.713 467.032 249.349 466.869C248.99 466.706 248.69 466.458 248.452 466.125C248.217 465.792 248.099 465.371 248.099 464.864V456.182ZM258.821 463.432V458.273H260.162V467H258.821V465.523H258.73C258.526 465.966 258.207 466.343 257.776 466.653C257.344 466.96 256.798 467.114 256.139 467.114C255.594 467.114 255.109 466.994 254.685 466.756C254.26 466.513 253.927 466.15 253.685 465.665C253.442 465.176 253.321 464.561 253.321 463.818V458.273H254.662V463.727C254.662 464.364 254.84 464.871 255.196 465.25C255.556 465.629 256.014 465.818 256.571 465.818C256.904 465.818 257.243 465.733 257.588 465.562C257.937 465.392 258.228 465.131 258.463 464.778C258.702 464.426 258.821 463.977 258.821 463.432ZM266.413 458.273V459.409H261.891V458.273H266.413ZM263.209 456.182H264.55V464.5C264.55 464.879 264.605 465.163 264.714 465.352C264.828 465.538 264.972 465.663 265.146 465.727C265.324 465.788 265.512 465.818 265.709 465.818C265.857 465.818 265.978 465.811 266.072 465.795C266.167 465.777 266.243 465.761 266.3 465.75L266.572 466.955C266.482 466.989 266.355 467.023 266.192 467.057C266.029 467.095 265.822 467.114 265.572 467.114C265.194 467.114 264.822 467.032 264.459 466.869C264.099 466.706 263.8 466.458 263.561 466.125C263.326 465.792 263.209 465.371 263.209 464.864V456.182ZM271.996 467.182C271.155 467.182 270.429 466.996 269.82 466.625C269.214 466.25 268.746 465.727 268.416 465.057C268.09 464.383 267.928 463.598 267.928 462.705C267.928 461.811 268.09 461.023 268.416 460.341C268.746 459.655 269.204 459.121 269.791 458.739C270.382 458.352 271.071 458.159 271.859 458.159C272.314 458.159 272.763 458.235 273.206 458.386C273.649 458.538 274.053 458.784 274.416 459.125C274.78 459.462 275.07 459.909 275.286 460.466C275.501 461.023 275.609 461.708 275.609 462.523V463.091H268.882V461.932H274.246C274.246 461.439 274.147 461 273.95 460.614C273.757 460.227 273.481 459.922 273.121 459.699C272.765 459.475 272.344 459.364 271.859 459.364C271.325 459.364 270.863 459.496 270.473 459.761C270.087 460.023 269.789 460.364 269.581 460.784C269.373 461.205 269.268 461.655 269.268 462.136V462.909C269.268 463.568 269.382 464.127 269.609 464.585C269.84 465.04 270.161 465.386 270.57 465.625C270.979 465.86 271.454 465.977 271.996 465.977C272.348 465.977 272.666 465.928 272.95 465.83C273.238 465.727 273.486 465.576 273.695 465.375C273.903 465.17 274.064 464.917 274.178 464.614L275.473 464.977C275.337 465.417 275.107 465.803 274.786 466.136C274.464 466.466 274.066 466.723 273.592 466.909C273.119 467.091 272.587 467.182 271.996 467.182ZM278.626 467.091C278.346 467.091 278.106 466.991 277.905 466.79C277.704 466.589 277.604 466.348 277.604 466.068C277.604 465.788 277.704 465.547 277.905 465.347C278.106 465.146 278.346 465.045 278.626 465.045C278.907 465.045 279.147 465.146 279.348 465.347C279.549 465.547 279.649 465.788 279.649 466.068C279.649 466.254 279.602 466.424 279.507 466.58C279.416 466.735 279.293 466.86 279.138 466.955C278.986 467.045 278.816 467.091 278.626 467.091ZM285.714 467.182C284.874 467.182 284.148 466.996 283.538 466.625C282.932 466.25 282.464 465.727 282.135 465.057C281.809 464.383 281.646 463.598 281.646 462.705C281.646 461.811 281.809 461.023 282.135 460.341C282.464 459.655 282.923 459.121 283.51 458.739C284.101 458.352 284.79 458.159 285.578 458.159C286.033 458.159 286.482 458.235 286.925 458.386C287.368 458.538 287.771 458.784 288.135 459.125C288.499 459.462 288.788 459.909 289.004 460.466C289.22 461.023 289.328 461.708 289.328 462.523V463.091H282.601V461.932H287.964C287.964 461.439 287.866 461 287.669 460.614C287.476 460.227 287.199 459.922 286.839 459.699C286.483 459.475 286.063 459.364 285.578 459.364C285.044 459.364 284.582 459.496 284.192 459.761C283.805 460.023 283.508 460.364 283.3 460.784C283.091 461.205 282.987 461.655 282.987 462.136V462.909C282.987 463.568 283.101 464.127 283.328 464.585C283.559 465.04 283.879 465.386 284.288 465.625C284.697 465.86 285.173 465.977 285.714 465.977C286.067 465.977 286.385 465.928 286.669 465.83C286.957 465.727 287.205 465.576 287.413 465.375C287.622 465.17 287.783 464.917 287.896 464.614L289.192 464.977C289.055 465.417 288.826 465.803 288.504 466.136C288.182 466.466 287.785 466.723 287.311 466.909C286.838 467.091 286.305 467.182 285.714 467.182ZM294.663 467.182C293.936 467.182 293.294 466.998 292.737 466.631C292.18 466.259 291.745 465.737 291.43 465.062C291.116 464.384 290.959 463.583 290.959 462.659C290.959 461.742 291.116 460.947 291.43 460.273C291.745 459.598 292.182 459.078 292.743 458.71C293.304 458.343 293.951 458.159 294.686 458.159C295.254 458.159 295.703 458.254 296.033 458.443C296.366 458.629 296.62 458.841 296.794 459.08C296.972 459.314 297.11 459.508 297.209 459.659H297.322V455.364H298.663V467H297.368V465.659H297.209C297.11 465.818 296.97 466.019 296.788 466.261C296.607 466.5 296.347 466.714 296.01 466.903C295.673 467.089 295.224 467.182 294.663 467.182ZM294.845 465.977C295.383 465.977 295.838 465.837 296.209 465.557C296.58 465.273 296.862 464.881 297.055 464.381C297.249 463.877 297.345 463.295 297.345 462.636C297.345 461.985 297.25 461.415 297.061 460.926C296.872 460.434 296.591 460.051 296.22 459.778C295.849 459.502 295.391 459.364 294.845 459.364C294.277 459.364 293.804 459.509 293.425 459.801C293.05 460.089 292.768 460.481 292.578 460.977C292.393 461.47 292.3 462.023 292.3 462.636C292.3 463.258 292.394 463.822 292.584 464.33C292.777 464.833 293.061 465.235 293.436 465.534C293.815 465.83 294.285 465.977 294.845 465.977ZM306.805 463.432V458.273H308.146V467H306.805V465.523H306.714C306.51 465.966 306.192 466.343 305.76 466.653C305.328 466.96 304.783 467.114 304.124 467.114C303.578 467.114 303.093 466.994 302.669 466.756C302.245 466.513 301.911 466.15 301.669 465.665C301.427 465.176 301.305 464.561 301.305 463.818V458.273H302.646V463.727C302.646 464.364 302.824 464.871 303.18 465.25C303.54 465.629 303.999 465.818 304.555 465.818C304.889 465.818 305.228 465.733 305.572 465.562C305.921 465.392 306.213 465.131 306.447 464.778C306.686 464.426 306.805 463.977 306.805 463.432Z" fill="#757682" fill-opacity="0.6"/>
</g>
<path d="M79.5 469C78.4625 469 77.4875 468.803 76.575 468.409C75.6625 468.016 74.8687 467.481 74.1937 466.806C73.5187 466.131 72.9844 465.338 72.5906 464.425C72.1969 463.512 72 462.538 72 461.5C72 460.463 72.1969 459.487 72.5906 458.575C72.9844 457.662 73.5187 456.869 74.1937 456.194C74.8687 455.519 75.6625 454.984 76.575 454.591C77.4875 454.197 78.4625 454 79.5 454C80.5375 454 81.5125 454.197 82.425 454.591C83.3375 454.984 84.1312 455.519 84.8062 456.194C85.4812 456.869 86.0156 457.662 86.4094 458.575C86.8031 459.487 87 460.463 87 461.5V462.587C87 463.325 86.7469 463.953 86.2406 464.472C85.7344 464.991 85.1125 465.25 84.375 465.25C83.9375 465.25 83.525 465.156 83.1375 464.969C82.75 464.781 82.425 464.513 82.1625 464.163C81.8 464.525 81.3906 464.797 80.9344 464.978C80.4781 465.159 80 465.25 79.5 465.25C78.4625 465.25 77.5781 464.884 76.8469 464.153C76.1156 463.422 75.75 462.538 75.75 461.5C75.75 460.463 76.1156 459.578 76.8469 458.847C77.5781 458.116 78.4625 457.75 79.5 457.75C80.5375 457.75 81.4219 458.116 82.1531 458.847C82.8844 459.578 83.25 460.463 83.25 461.5V462.587C83.25 462.912 83.3563 463.188 83.5688 463.413C83.7812 463.638 84.05 463.75 84.375 463.75C84.7 463.75 84.9688 463.638 85.1812 463.413C85.3937 463.188 85.5 462.912 85.5 462.587V461.5C85.5 459.825 84.9188 458.406 83.7563 457.244C82.5938 456.081 81.175 455.5 79.5 455.5C77.825 455.5 76.4062 456.081 75.2438 457.244C74.0813 458.406 73.5 459.825 73.5 461.5C73.5 463.175 74.0813 464.594 75.2438 465.756C76.4062 466.919 77.825 467.5 79.5 467.5H83.25V469H79.5ZM79.5 463.75C80.125 463.75 80.6562 463.531 81.0938 463.094C81.5312 462.656 81.75 462.125 81.75 461.5C81.75 460.875 81.5312 460.344 81.0938 459.906C80.6562 459.469 80.125 459.25 79.5 459.25C78.875 459.25 78.3438 459.469 77.9062 459.906C77.4688 460.344 77.25 460.875 77.25 461.5C77.25 462.125 77.4688 462.656 77.9062 463.094C78.3438 463.531 78.875 463.75 79.5 463.75Z" fill="#757682"/>
<path d="M60.7313 523V515.725H63.4535C64.0105 515.725 64.4792 515.829 64.8595 516.038C65.2397 516.247 65.5274 516.533 65.7224 516.895C65.9173 517.258 66.0148 517.671 66.0148 518.134C66.0148 518.599 65.9165 519.012 65.7197 519.373C65.523 519.735 65.2329 520.019 64.8496 520.227C64.4663 520.435 63.9937 520.539 63.432 520.539H61.6289V519.465H63.2598C63.59 519.465 63.86 519.408 64.0697 519.293C64.2795 519.179 64.4341 519.022 64.5334 518.821C64.6328 518.62 64.6824 518.391 64.6824 518.134C64.6824 517.874 64.6328 517.646 64.5334 517.448C64.4341 517.249 64.279 517.095 64.0682 516.983C63.8574 516.872 63.5858 516.816 63.2535 516.816H62.0351V523H60.7313ZM66.3928 523L68.9324 515.725H70.5902L73.1834 523H71.7533L70.4617 519.221C70.3357 518.83 70.2038 518.388 70.0662 517.896C69.9286 517.403 69.7767 516.842 69.6105 516.212H69.8848C69.723 516.846 69.5758 517.412 69.4432 517.908C69.3105 518.405 69.1854 518.843 69.068 519.221L67.8185 523H66.3928ZM67.8721 521.197V520.148H71.7041V521.197H67.8721ZM77.1094 523.113C76.5466 523.113 76.0571 523.025 75.6409 522.849C75.2247 522.674 74.8999 522.418 74.6666 522.083C74.4333 521.747 74.3066 521.34 74.2867 520.86H75.5711C75.5924 521.115 75.672 521.327 75.8099 521.495C75.9477 521.664 76.1288 521.79 76.3532 521.873C76.5776 521.956 76.8262 521.998 77.0988 521.998C77.3854 521.998 77.6383 521.954 77.8576 521.867C78.0769 521.779 78.2487 521.656 78.373 521.498C78.4972 521.34 78.5594 521.156 78.5594 520.948C78.5594 520.759 78.5046 520.602 78.395 520.478C78.2855 520.355 78.1322 520.25 77.9352 520.165C77.7382 520.08 77.5077 520.005 77.2438 519.939L76.4176 519.723C75.8117 519.568 75.3381 519.332 74.9968 519.015C74.6554 518.698 74.4848 518.283 74.4848 517.77C74.4848 517.341 74.6007 516.965 74.8326 516.644C75.0645 516.322 75.3807 516.072 75.7812 515.894C76.1816 515.716 76.6355 515.627 77.143 515.627C77.6613 515.627 78.1153 515.717 78.5048 515.896C78.8943 516.075 79.1992 516.322 79.4194 516.637C79.6397 516.952 79.7545 517.312 79.7641 517.719H78.5008C78.4678 517.406 78.3282 517.164 78.0817 516.993C77.8353 516.821 77.5161 516.736 77.1242 516.736C76.8516 516.736 76.6163 516.777 76.4184 516.859C76.2204 516.942 76.0687 517.055 75.9631 517.199C75.8575 517.343 75.8047 517.508 75.8047 517.692C75.8047 517.896 75.8672 518.062 75.9923 518.192C76.1173 518.322 76.2752 518.427 76.4659 518.505C76.6566 518.583 76.8492 518.646 77.0437 518.695L77.7238 518.869C77.993 518.933 78.2549 519.019 78.5097 519.128C78.7644 519.236 78.9936 519.373 79.1974 519.537C79.4011 519.701 79.5627 519.9 79.6823 520.133C79.8019 520.367 79.8617 520.642 79.8617 520.958C79.8617 521.384 79.7531 521.76 79.5358 522.084C79.3186 522.408 79.0048 522.661 78.5945 522.842C78.1842 523.022 77.6892 523.113 77.1094 523.113ZM84.1133 523.113C83.5505 523.113 83.061 523.025 82.6448 522.849C82.2286 522.674 81.9038 522.418 81.6705 522.083C81.4372 521.747 81.3106 521.34 81.2906 520.86H82.575C82.5963 521.115 82.6759 521.327 82.8138 521.495C82.9516 521.664 83.1327 521.79 83.3571 521.873C83.5815 521.956 83.8301 521.998 84.1027 521.998C84.3893 521.998 84.6423 521.954 84.8615 521.867C85.0808 521.779 85.2526 521.656 85.3769 521.498C85.5011 521.34 85.5633 521.156 85.5633 520.948C85.5633 520.759 85.5085 520.602 85.3989 520.478C85.2894 520.355 85.1361 520.25 84.9391 520.165C84.7421 520.08 84.5116 520.005 84.2477 519.939L83.4215 519.723C82.8156 519.568 82.342 519.332 82.0007 519.015C81.6593 518.698 81.4887 518.283 81.4887 517.77C81.4887 517.341 81.6046 516.965 81.8365 516.644C82.0684 516.322 82.3846 516.072 82.7851 515.894C83.1855 515.716 83.6395 515.627 84.1469 515.627C84.6652 515.627 85.1192 515.717 85.5087 515.896C85.8982 516.075 86.2031 516.322 86.4233 516.637C86.6436 516.952 86.7585 517.312 86.768 517.719H85.5047C85.4718 517.406 85.3321 517.164 85.0856 516.993C84.8392 516.821 84.5201 516.736 84.1281 516.736C83.8555 516.736 83.6202 516.777 83.4223 516.859C83.2243 516.942 83.0726 517.055 82.967 517.199C82.8614 517.343 82.8086 517.508 82.8086 517.692C82.8086 517.896 82.8711 518.062 82.9962 518.192C83.1212 518.322 83.2791 518.427 83.4698 518.505C83.6605 518.583 83.8531 518.646 84.0476 518.695L84.7277 518.869C84.9969 518.933 85.2588 519.019 85.5136 519.128C85.7683 519.236 85.9975 519.373 86.2013 519.537C86.405 519.701 86.5666 519.9 86.6862 520.133C86.8058 520.367 86.8656 520.642 86.8656 520.958C86.8656 521.384 86.757 521.76 86.5397 522.084C86.3225 522.408 86.0087 522.661 85.5984 522.842C85.1881 523.022 84.6931 523.113 84.1133 523.113ZM90.0365 523L88.0734 515.725H89.4742L90.4209 519.597C90.4874 519.877 90.5489 520.171 90.6055 520.48C90.662 520.789 90.7171 521.1 90.771 521.413C90.8248 521.725 90.8769 522.032 90.9271 522.331H90.7146C90.7705 522.032 90.8262 521.725 90.8818 521.413C90.9374 521.1 90.996 520.789 91.0575 520.48C91.119 520.171 91.1842 519.877 91.2531 519.597L92.2383 515.725H93.6234L94.6023 519.597C94.6733 519.877 94.739 520.171 94.7995 520.48C94.86 520.789 94.9191 521.1 94.9768 521.413C95.0344 521.725 95.0912 522.032 95.1471 522.331H94.9234C94.9769 522.032 95.0303 521.725 95.0836 521.413C95.1368 521.1 95.1931 520.789 95.2522 520.48C95.3114 520.171 95.3727 519.877 95.4359 519.597L96.3813 515.725H97.7883L95.8189 523H94.325L93.2648 518.983C93.1682 518.607 93.0828 518.2 93.0085 517.761C92.9342 517.321 92.8554 516.855 92.7721 516.362H93.0834C92.993 516.839 92.9151 517.293 92.8497 517.724C92.7843 518.156 92.6985 518.576 92.5924 518.983L91.5336 523H90.0365ZM102.215 523.098C101.579 523.098 101.009 522.95 100.505 522.654C100.001 522.358 99.6026 521.932 99.3109 521.375C99.0193 520.817 98.8734 520.148 98.8734 519.367C98.8734 518.582 99.0193 517.91 99.3109 517.352C99.6026 516.795 100.001 516.368 100.505 516.071C101.009 515.775 101.579 515.627 102.215 515.627C102.851 515.627 103.42 515.775 103.922 516.071C104.425 516.368 104.822 516.795 105.113 517.352C105.404 517.91 105.55 518.582 105.55 519.367C105.55 520.149 105.404 520.819 105.113 521.376C104.822 521.933 104.425 522.36 103.922 522.655C103.42 522.95 102.851 523.098 102.215 523.098ZM102.215 521.929C102.61 521.929 102.96 521.831 103.264 521.634C103.569 521.438 103.807 521.149 103.981 520.767C104.154 520.386 104.241 519.919 104.241 519.367C104.241 518.81 104.154 518.34 103.981 517.958C103.807 517.576 103.569 517.286 103.264 517.09C102.96 516.894 102.61 516.796 102.215 516.796C101.818 516.796 101.468 516.894 101.162 517.092C100.857 517.289 100.618 517.579 100.444 517.961C100.27 518.344 100.183 518.812 100.183 519.367C100.183 519.919 100.27 520.385 100.444 520.766C100.618 521.147 100.857 521.436 101.162 521.633C101.468 521.83 101.818 521.929 102.215 521.929ZM107.286 523V515.725H110.008C110.565 515.725 111.034 515.822 111.414 516.017C111.794 516.212 112.082 516.484 112.277 516.834C112.472 517.183 112.57 517.589 112.57 518.052C112.57 518.516 112.471 518.919 112.274 519.261C112.078 519.602 111.788 519.865 111.404 520.051C111.021 520.236 110.548 520.329 109.987 520.329H108.046V519.249H109.814C110.145 519.249 110.414 519.202 110.623 519.109C110.832 519.016 110.986 518.881 111.087 518.703C111.187 518.525 111.237 518.308 111.237 518.052C111.237 517.791 111.187 517.569 111.087 517.386C110.986 517.203 110.831 517.062 110.621 516.963C110.412 516.865 110.14 516.816 109.808 516.816H108.59V523H107.286ZM111.378 523L109.613 519.701H111.037L112.839 523H111.378ZM116.771 523H114.929V521.87H116.706C117.215 521.87 117.64 521.777 117.981 521.592C118.322 521.406 118.578 521.126 118.749 520.753C118.92 520.379 119.005 519.913 119.005 519.355C119.005 518.799 118.92 518.336 118.749 517.966C118.578 517.595 118.325 517.318 117.99 517.132C117.655 516.947 117.239 516.854 116.741 516.854H114.894V515.725H116.82C117.544 515.725 118.165 515.87 118.682 516.16C119.2 516.45 119.598 516.867 119.876 517.409C120.155 517.952 120.294 518.6 120.294 519.355C120.294 520.112 120.155 520.763 119.876 521.308C119.597 521.852 119.194 522.271 118.669 522.562C118.143 522.854 117.51 523 116.771 523ZM115.613 515.725V523H114.309V515.725H115.613Z" fill="#50606F"/>
<path d="M292.157 523V515.725H296.944V516.962H293.649V518.993H296.623V520.209H293.649V523H292.157ZM301.724 523.098C301.081 523.098 300.503 522.951 299.99 522.658C299.477 522.365 299.072 521.94 298.774 521.383C298.476 520.827 298.328 520.155 298.328 519.367C298.328 518.575 298.476 517.9 298.774 517.342C299.072 516.785 299.477 516.36 299.99 516.067C300.503 515.773 301.081 515.627 301.724 515.627C302.366 515.627 302.944 515.773 303.455 516.067C303.966 516.36 304.371 516.785 304.669 517.342C304.966 517.9 305.115 518.575 305.115 519.367C305.115 520.157 304.966 520.829 304.669 521.386C304.371 521.942 303.966 522.367 303.455 522.659C302.944 522.951 302.366 523.098 301.724 523.098ZM301.724 521.774C302.1 521.774 302.429 521.682 302.711 521.497C302.992 521.313 303.211 521.041 303.368 520.683C303.524 520.324 303.603 519.885 303.603 519.367C303.603 518.844 303.524 518.403 303.368 518.043C303.211 517.684 302.992 517.412 302.711 517.227C302.429 517.043 302.1 516.95 301.724 516.95C301.347 516.95 301.018 517.043 300.736 517.228C300.454 517.414 300.234 517.686 300.076 518.046C299.919 518.405 299.84 518.846 299.84 519.367C299.84 519.885 299.919 520.324 300.076 520.681C300.234 521.039 300.454 521.311 300.736 521.496C301.018 521.682 301.347 521.774 301.724 521.774ZM306.732 523V515.725H309.57C310.122 515.725 310.592 515.822 310.979 516.018C311.367 516.213 311.662 516.489 311.866 516.844C312.07 517.199 312.172 517.615 312.172 518.092C312.172 518.572 312.068 518.986 311.862 519.332C311.656 519.678 311.356 519.943 310.963 520.128C310.571 520.312 310.095 520.405 309.535 520.405H307.613V519.197H309.299C309.602 519.197 309.852 519.155 310.049 519.072C310.245 518.989 310.392 518.865 310.489 518.702C310.586 518.538 310.634 518.335 310.634 518.092C310.634 517.846 310.586 517.639 310.489 517.471C310.392 517.302 310.245 517.174 310.048 517.086C309.85 516.998 309.599 516.954 309.294 516.954H308.224V523H306.732ZM310.779 523L309.011 519.689H310.626L312.434 523H310.779ZM317.023 523.098C316.344 523.098 315.747 522.947 315.233 522.645C314.72 522.343 314.319 521.913 314.031 521.356C313.744 520.799 313.6 520.137 313.6 519.372C313.6 518.585 313.75 517.912 314.049 517.354C314.348 516.796 314.753 516.368 315.264 516.072C315.776 515.775 316.352 515.627 316.991 515.627C317.4 515.627 317.781 515.686 318.134 515.804C318.487 515.923 318.801 516.091 319.077 516.31C319.353 516.528 319.578 516.787 319.752 517.085C319.926 517.384 320.039 517.712 320.09 518.071H318.574C318.524 517.896 318.452 517.74 318.359 517.602C318.266 517.464 318.154 517.346 318.021 517.249C317.889 517.151 317.739 517.077 317.571 517.026C317.402 516.976 317.217 516.95 317.014 516.95C316.641 516.95 316.31 517.044 316.024 517.23C315.737 517.416 315.513 517.689 315.353 518.047C315.193 518.406 315.113 518.842 315.113 519.357C315.113 519.871 315.192 520.309 315.35 520.668C315.509 521.028 315.731 521.302 316.018 521.491C316.306 521.68 316.644 521.774 317.034 521.774C317.384 521.774 317.685 521.71 317.937 521.583C318.189 521.455 318.382 521.274 318.515 521.04C318.649 520.805 318.716 520.529 318.716 520.21L319.029 520.256H317.137V519.124H320.162V520.033C320.162 520.669 320.027 521.215 319.758 521.673C319.488 522.131 319.118 522.483 318.645 522.729C318.173 522.975 317.632 523.098 317.023 523.098ZM325.001 523.098C324.358 523.098 323.78 522.951 323.267 522.658C322.754 522.365 322.349 521.94 322.051 521.383C321.754 520.827 321.605 520.155 321.605 519.367C321.605 518.575 321.754 517.9 322.051 517.342C322.349 516.785 322.754 516.36 323.267 516.067C323.78 515.773 324.358 515.627 325.001 515.627C325.644 515.627 326.221 515.773 326.732 516.067C327.244 516.36 327.648 516.785 327.946 517.342C328.244 517.9 328.392 518.575 328.392 519.367C328.392 520.157 328.244 520.829 327.946 521.386C327.648 521.942 327.244 522.367 326.732 522.659C326.221 522.951 325.644 523.098 325.001 523.098ZM325.001 521.774C325.378 521.774 325.707 521.682 325.988 521.497C326.269 521.313 326.488 521.041 326.645 520.683C326.802 520.324 326.88 519.885 326.88 519.367C326.88 518.844 326.802 518.403 326.645 518.043C326.488 517.684 326.269 517.412 325.988 517.227C325.707 517.043 325.378 516.95 325.001 516.95C324.625 516.95 324.295 517.043 324.013 517.228C323.731 517.414 323.511 517.686 323.354 518.046C323.196 518.405 323.118 518.846 323.118 519.367C323.118 519.885 323.196 520.324 323.354 520.681C323.511 521.039 323.731 521.311 324.013 521.496C324.295 521.682 324.625 521.774 325.001 521.774ZM329.402 516.962V515.725H335.343V516.962H333.121V523H331.629V516.962H329.402ZM338.113 520.763V520.648C338.113 520.232 338.15 519.906 338.223 519.668C338.296 519.431 338.402 519.242 338.541 519.102C338.68 518.961 338.85 518.829 339.05 518.706C339.27 518.565 339.454 518.412 339.604 518.245C339.753 518.078 339.827 517.876 339.827 517.638C339.827 517.468 339.788 517.322 339.708 517.199C339.629 517.076 339.522 516.98 339.388 516.911C339.253 516.841 339.104 516.807 338.939 516.807C338.782 516.807 338.633 516.841 338.493 516.909C338.352 516.978 338.237 517.079 338.148 517.213C338.059 517.347 338.01 517.513 338.001 517.711H336.594C336.601 517.241 336.712 516.853 336.926 516.545C337.14 516.237 337.423 516.008 337.777 515.855C338.13 515.703 338.519 515.627 338.944 515.627C339.413 515.627 339.826 515.705 340.185 515.86C340.543 516.016 340.824 516.24 341.027 516.534C341.231 516.827 341.332 517.179 341.332 517.591C341.332 518.006 341.234 518.352 341.038 518.629C340.842 518.906 340.577 519.144 340.243 519.341C340.056 519.454 339.901 519.566 339.779 519.678C339.656 519.79 339.566 519.921 339.508 520.071C339.451 520.221 339.422 520.413 339.422 520.648V520.763H338.113ZM338.773 523.092C338.519 523.092 338.311 523.016 338.149 522.863C337.987 522.71 337.906 522.511 337.906 522.267C337.906 522.021 337.987 521.822 338.149 521.669C338.311 521.515 338.519 521.439 338.773 521.439C339.029 521.439 339.238 521.515 339.398 521.669C339.558 521.822 339.638 522.021 339.638 522.267C339.638 522.511 339.558 522.71 339.398 522.863C339.238 523.016 339.029 523.092 338.773 523.092Z" fill="#00113A"/>
<rect x="56" y="533" width="290" height="51" rx="8" fill="#F2F4F6"/>
<g clip-path="url(#clip2_38_228)">
<path d="M104.5 561.864C104.042 561.864 103.623 561.752 103.244 561.528C102.866 561.301 102.563 560.998 102.335 560.619C102.112 560.241 102 559.822 102 559.364C102 558.902 102.112 558.483 102.335 558.108C102.563 557.729 102.866 557.428 103.244 557.205C103.623 556.977 104.042 556.864 104.5 556.864C104.962 556.864 105.381 556.977 105.756 557.205C106.134 557.428 106.436 557.729 106.659 558.108C106.886 558.483 107 558.902 107 559.364C107 559.822 106.886 560.241 106.659 560.619C106.436 560.998 106.134 561.301 105.756 561.528C105.381 561.752 104.962 561.864 104.5 561.864ZM113.5 561.864C113.042 561.864 112.623 561.752 112.244 561.528C111.866 561.301 111.563 560.998 111.335 560.619C111.112 560.241 111 559.822 111 559.364C111 558.902 111.112 558.483 111.335 558.108C111.563 557.729 111.866 557.428 112.244 557.205C112.623 556.977 113.042 556.864 113.5 556.864C113.962 556.864 114.381 556.977 114.756 557.205C115.134 557.428 115.436 557.729 115.659 558.108C115.886 558.483 116 558.902 116 559.364C116 559.822 115.886 560.241 115.659 560.619C115.436 560.998 115.134 561.301 114.756 561.528C114.381 561.752 113.962 561.864 113.5 561.864ZM122.5 561.864C122.042 561.864 121.623 561.752 121.244 561.528C120.866 561.301 120.563 560.998 120.335 560.619C120.112 560.241 120 559.822 120 559.364C120 558.902 120.112 558.483 120.335 558.108C120.563 557.729 120.866 557.428 121.244 557.205C121.623 556.977 122.042 556.864 122.5 556.864C122.962 556.864 123.381 556.977 123.756 557.205C124.134 557.428 124.436 557.729 124.659 558.108C124.886 558.483 125 558.902 125 559.364C125 559.822 124.886 560.241 124.659 560.619C124.436 560.998 124.134 561.301 123.756 561.528C123.381 561.752 122.962 561.864 122.5 561.864ZM131.5 561.864C131.042 561.864 130.623 561.752 130.244 561.528C129.866 561.301 129.563 560.998 129.335 560.619C129.112 560.241 129 559.822 129 559.364C129 558.902 129.112 558.483 129.335 558.108C129.563 557.729 129.866 557.428 130.244 557.205C130.623 556.977 131.042 556.864 131.5 556.864C131.962 556.864 132.381 556.977 132.756 557.205C133.134 557.428 133.436 557.729 133.659 558.108C133.886 558.483 134 558.902 134 559.364C134 559.822 133.886 560.241 133.659 560.619C133.436 560.998 133.134 561.301 132.756 561.528C132.381 561.752 131.962 561.864 131.5 561.864ZM140.5 561.864C140.042 561.864 139.623 561.752 139.244 561.528C138.866 561.301 138.563 560.998 138.335 560.619C138.112 560.241 138 559.822 138 559.364C138 558.902 138.112 558.483 138.335 558.108C138.563 557.729 138.866 557.428 139.244 557.205C139.623 556.977 140.042 556.864 140.5 556.864C140.962 556.864 141.381 556.977 141.756 557.205C142.134 557.428 142.436 557.729 142.659 558.108C142.886 558.483 143 558.902 143 559.364C143 559.822 142.886 560.241 142.659 560.619C142.436 560.998 142.134 561.301 141.756 561.528C141.381 561.752 140.962 561.864 140.5 561.864ZM149.5 561.864C149.042 561.864 148.623 561.752 148.244 561.528C147.866 561.301 147.563 560.998 147.335 560.619C147.112 560.241 147 559.822 147 559.364C147 558.902 147.112 558.483 147.335 558.108C147.563 557.729 147.866 557.428 148.244 557.205C148.623 556.977 149.042 556.864 149.5 556.864C149.962 556.864 150.381 556.977 150.756 557.205C151.134 557.428 151.436 557.729 151.659 558.108C151.886 558.483 152 558.902 152 559.364C152 559.822 151.886 560.241 151.659 560.619C151.436 560.998 151.134 561.301 150.756 561.528C150.381 561.752 149.962 561.864 149.5 561.864ZM158.5 561.864C158.042 561.864 157.623 561.752 157.244 561.528C156.866 561.301 156.563 560.998 156.335 560.619C156.112 560.241 156 559.822 156 559.364C156 558.902 156.112 558.483 156.335 558.108C156.563 557.729 156.866 557.428 157.244 557.205C157.623 556.977 158.042 556.864 158.5 556.864C158.962 556.864 159.381 556.977 159.756 557.205C160.134 557.428 160.436 557.729 160.659 558.108C160.886 558.483 161 558.902 161 559.364C161 559.822 160.886 560.241 160.659 560.619C160.436 560.998 160.134 561.301 159.756 561.528C159.381 561.752 158.962 561.864 158.5 561.864ZM167.5 561.864C167.042 561.864 166.623 561.752 166.244 561.528C165.866 561.301 165.563 560.998 165.335 560.619C165.112 560.241 165 559.822 165 559.364C165 558.902 165.112 558.483 165.335 558.108C165.563 557.729 165.866 557.428 166.244 557.205C166.623 556.977 167.042 556.864 167.5 556.864C167.962 556.864 168.381 556.977 168.756 557.205C169.134 557.428 169.436 557.729 169.659 558.108C169.886 558.483 170 558.902 170 559.364C170 559.822 169.886 560.241 169.659 560.619C169.436 560.998 169.134 561.301 168.756 561.528C168.381 561.752 167.962 561.864 167.5 561.864ZM176.5 561.864C176.042 561.864 175.623 561.752 175.244 561.528C174.866 561.301 174.563 560.998 174.335 560.619C174.112 560.241 174 559.822 174 559.364C174 558.902 174.112 558.483 174.335 558.108C174.563 557.729 174.866 557.428 175.244 557.205C175.623 556.977 176.042 556.864 176.5 556.864C176.962 556.864 177.381 556.977 177.756 557.205C178.134 557.428 178.436 557.729 178.659 558.108C178.886 558.483 179 558.902 179 559.364C179 559.822 178.886 560.241 178.659 560.619C178.436 560.998 178.134 561.301 177.756 561.528C177.381 561.752 176.962 561.864 176.5 561.864ZM185.5 561.864C185.042 561.864 184.623 561.752 184.244 561.528C183.866 561.301 183.563 560.998 183.335 560.619C183.112 560.241 183 559.822 183 559.364C183 558.902 183.112 558.483 183.335 558.108C183.563 557.729 183.866 557.428 184.244 557.205C184.623 556.977 185.042 556.864 185.5 556.864C185.962 556.864 186.381 556.977 186.756 557.205C187.134 557.428 187.436 557.729 187.659 558.108C187.886 558.483 188 558.902 188 559.364C188 559.822 187.886 560.241 187.659 560.619C187.436 560.998 187.134 561.301 186.756 561.528C186.381 561.752 185.962 561.864 185.5 561.864ZM194.5 561.864C194.042 561.864 193.623 561.752 193.244 561.528C192.866 561.301 192.563 560.998 192.335 560.619C192.112 560.241 192 559.822 192 559.364C192 558.902 192.112 558.483 192.335 558.108C192.563 557.729 192.866 557.428 193.244 557.205C193.623 556.977 194.042 556.864 194.5 556.864C194.962 556.864 195.381 556.977 195.756 557.205C196.134 557.428 196.436 557.729 196.659 558.108C196.886 558.483 197 558.902 197 559.364C197 559.822 196.886 560.241 196.659 560.619C196.436 560.998 196.134 561.301 195.756 561.528C195.381 561.752 194.962 561.864 194.5 561.864ZM203.5 561.864C203.042 561.864 202.623 561.752 202.244 561.528C201.866 561.301 201.563 560.998 201.335 560.619C201.112 560.241 201 559.822 201 559.364C201 558.902 201.112 558.483 201.335 558.108C201.563 557.729 201.866 557.428 202.244 557.205C202.623 556.977 203.042 556.864 203.5 556.864C203.962 556.864 204.381 556.977 204.756 557.205C205.134 557.428 205.436 557.729 205.659 558.108C205.886 558.483 206 558.902 206 559.364C206 559.822 205.886 560.241 205.659 560.619C205.436 560.998 205.134 561.301 204.756 561.528C204.381 561.752 203.962 561.864 203.5 561.864Z" fill="#757682" fill-opacity="0.6"/>
</g>
<path d="M73.5 566.375C73.0875 566.375 72.7344 566.228 72.4406 565.934C72.1469 565.641 72 565.288 72 564.875V557.375C72 556.963 72.1469 556.609 72.4406 556.316C72.7344 556.022 73.0875 555.875 73.5 555.875H74.25V554.375C74.25 553.338 74.6156 552.453 75.3469 551.722C76.0781 550.991 76.9625 550.625 78 550.625C79.0375 550.625 79.9219 550.991 80.6531 551.722C81.3844 552.453 81.75 553.338 81.75 554.375V555.875H82.5C82.9125 555.875 83.2656 556.022 83.5594 556.316C83.8531 556.609 84 556.963 84 557.375V564.875C84 565.288 83.8531 565.641 83.5594 565.934C83.2656 566.228 82.9125 566.375 82.5 566.375H73.5ZM73.5 564.875H82.5V557.375H73.5V564.875ZM78 562.625C78.4125 562.625 78.7656 562.478 79.0594 562.184C79.3531 561.891 79.5 561.538 79.5 561.125C79.5 560.712 79.3531 560.359 79.0594 560.066C78.7656 559.772 78.4125 559.625 78 559.625C77.5875 559.625 77.2344 559.772 76.9406 560.066C76.6469 560.359 76.5 560.712 76.5 561.125C76.5 561.538 76.6469 561.891 76.9406 562.184C77.2344 562.478 77.5875 562.625 78 562.625ZM75.75 555.875H80.25V554.375C80.25 553.75 80.0312 553.219 79.5938 552.781C79.1562 552.344 78.625 552.125 78 552.125C77.375 552.125 76.8438 552.344 76.4062 552.781C75.9688 553.219 75.75 553.75 75.75 554.375V555.875ZM73.5 564.875V557.375V564.875Z" fill="#757682"/>
<path d="M321.75 561.875C322.688 561.875 323.484 561.547 324.141 560.891C324.797 560.234 325.125 559.438 325.125 558.5C325.125 557.562 324.797 556.766 324.141 556.109C323.484 555.453 322.688 555.125 321.75 555.125C320.812 555.125 320.016 555.453 319.359 556.109C318.703 556.766 318.375 557.562 318.375 558.5C318.375 559.438 318.703 560.234 319.359 560.891C320.016 561.547 320.812 561.875 321.75 561.875ZM321.75 560.525C321.188 560.525 320.709 560.328 320.316 559.934C319.922 559.541 319.725 559.062 319.725 558.5C319.725 557.938 319.922 557.459 320.316 557.066C320.709 556.672 321.188 556.475 321.75 556.475C322.312 556.475 322.791 556.672 323.184 557.066C323.578 557.459 323.775 557.938 323.775 558.5C323.775 559.062 323.578 559.541 323.184 559.934C322.791 560.328 322.312 560.525 321.75 560.525ZM321.75 564.125C319.925 564.125 318.262 563.616 316.763 562.597C315.263 561.578 314.175 560.213 313.5 558.5C314.175 556.787 315.263 555.422 316.763 554.403C318.262 553.384 319.925 552.875 321.75 552.875C323.575 552.875 325.238 553.384 326.738 554.403C328.238 555.422 329.325 556.787 330 558.5C329.325 560.213 328.238 561.578 326.738 562.597C325.238 563.616 323.575 564.125 321.75 564.125ZM321.75 562.625C323.163 562.625 324.459 562.253 325.641 561.509C326.822 560.766 327.725 559.762 328.35 558.5C327.725 557.238 326.822 556.234 325.641 555.491C324.459 554.747 323.163 554.375 321.75 554.375C320.338 554.375 319.041 554.747 317.859 555.491C316.678 556.234 315.775 557.238 315.15 558.5C315.775 559.762 316.678 560.766 317.859 561.509C319.041 562.253 320.338 562.625 321.75 562.625Z" fill="#757682"/>
<rect x="56" y="608" width="290" height="56" rx="8" fill="url(#paint0_linear_38_228)"/>
<g filter="url(#filter4_dd_38_228)">
<rect x="56" y="608" width="290" height="56" rx="8" fill="white" fill-opacity="0.01" shape-rendering="crispEdges"/>
</g>
<path d="M116.746 642V630.48H118.674V640.192H123.762V642H116.746ZM128.933 642.24C128.069 642.24 127.315 642.045 126.669 641.656C126.024 641.267 125.523 640.731 125.165 640.048C124.813 639.36 124.637 638.571 124.637 637.68C124.637 636.773 124.819 635.979 125.181 635.296C125.544 634.613 126.048 634.08 126.693 633.696C127.339 633.312 128.085 633.12 128.933 633.12C129.803 633.12 130.56 633.315 131.205 633.704C131.851 634.093 132.352 634.632 132.709 635.32C133.067 636.003 133.245 636.789 133.245 637.68C133.245 638.576 133.064 639.368 132.701 640.056C132.344 640.739 131.843 641.275 131.197 641.664C130.552 642.048 129.797 642.24 128.933 642.24ZM128.933 640.432C129.701 640.432 130.272 640.176 130.645 639.664C131.019 639.152 131.205 638.491 131.205 637.68C131.205 636.843 131.016 636.176 130.637 635.68C130.259 635.179 129.691 634.928 128.933 634.928C128.416 634.928 127.989 635.045 127.653 635.28C127.323 635.509 127.077 635.832 126.917 636.248C126.757 636.659 126.677 637.136 126.677 637.68C126.677 638.517 126.867 639.187 127.245 639.688C127.629 640.184 128.192 640.432 128.933 640.432ZM138.64 646.08C138.16 646.08 137.699 646.005 137.256 645.856C136.819 645.707 136.424 645.491 136.072 645.208C135.72 644.931 135.432 644.595 135.208 644.2L136.984 643.32C137.149 643.635 137.381 643.867 137.68 644.016C137.984 644.171 138.307 644.248 138.648 644.248C139.048 644.248 139.405 644.176 139.72 644.032C140.035 643.893 140.277 643.685 140.448 643.408C140.624 643.136 140.707 642.795 140.696 642.384V639.928H140.936V633.36H142.624V642.416C142.624 642.635 142.613 642.843 142.592 643.04C142.576 643.243 142.547 643.44 142.504 643.632C142.376 644.192 142.131 644.651 141.768 645.008C141.405 645.371 140.955 645.64 140.416 645.816C139.883 645.992 139.291 646.08 138.64 646.08ZM138.472 642.24C137.677 642.24 136.984 642.04 136.392 641.64C135.8 641.24 135.341 640.696 135.016 640.008C134.691 639.32 134.528 638.544 134.528 637.68C134.528 636.805 134.691 636.027 135.016 635.344C135.347 634.656 135.813 634.115 136.416 633.72C137.019 633.32 137.728 633.12 138.544 633.12C139.365 633.12 140.053 633.32 140.608 633.72C141.168 634.115 141.592 634.656 141.88 635.344C142.168 636.032 142.312 636.811 142.312 637.68C142.312 638.539 142.168 639.315 141.88 640.008C141.592 640.696 141.163 641.24 140.592 641.64C140.021 642.04 139.315 642.24 138.472 642.24ZM138.768 640.512C139.285 640.512 139.701 640.395 140.016 640.16C140.336 639.92 140.568 639.587 140.712 639.16C140.861 638.733 140.936 638.24 140.936 637.68C140.936 637.115 140.861 636.621 140.712 636.2C140.568 635.773 140.341 635.443 140.032 635.208C139.723 634.968 139.323 634.848 138.832 634.848C138.315 634.848 137.888 634.976 137.552 635.232C137.216 635.483 136.968 635.824 136.808 636.256C136.648 636.683 136.568 637.157 136.568 637.68C136.568 638.208 136.645 638.688 136.8 639.12C136.96 639.547 137.203 639.885 137.528 640.136C137.853 640.387 138.267 640.512 138.768 640.512ZM145.027 632.048V630.28H146.955V632.048H145.027ZM145.027 642V633.36H146.955V642H145.027ZM155.328 642V637.84C155.328 637.568 155.309 637.267 155.272 636.936C155.234 636.605 155.146 636.288 155.008 635.984C154.874 635.675 154.672 635.421 154.4 635.224C154.133 635.027 153.77 634.928 153.312 634.928C153.066 634.928 152.824 634.968 152.584 635.048C152.344 635.128 152.125 635.267 151.928 635.464C151.736 635.656 151.581 635.923 151.464 636.264C151.346 636.6 151.288 637.032 151.288 637.56L150.144 637.072C150.144 636.336 150.285 635.669 150.568 635.072C150.856 634.475 151.277 634 151.832 633.648C152.386 633.291 153.069 633.112 153.88 633.112C154.52 633.112 155.048 633.219 155.464 633.432C155.88 633.645 156.21 633.917 156.456 634.248C156.701 634.579 156.882 634.931 157 635.304C157.117 635.677 157.192 636.032 157.224 636.368C157.261 636.699 157.28 636.968 157.28 637.176V642H155.328ZM149.336 642V633.36H151.056V636.04H151.288V642H149.336ZM167.635 642C167.064 642.107 166.504 642.152 165.955 642.136C165.411 642.125 164.923 642.027 164.491 641.84C164.059 641.648 163.731 641.347 163.507 640.936C163.309 640.563 163.205 640.181 163.195 639.792C163.184 639.403 163.179 638.963 163.179 638.472V630.96H165.099V638.36C165.099 638.707 165.101 639.011 165.107 639.272C165.117 639.533 165.173 639.747 165.275 639.912C165.467 640.232 165.773 640.411 166.195 640.448C166.616 640.485 167.096 640.464 167.635 640.384V642ZM161.611 634.872V633.36H167.635V634.872H161.611ZM172.871 642.24C172.007 642.24 171.252 642.045 170.607 641.656C169.962 641.267 169.46 640.731 169.103 640.048C168.751 639.36 168.575 638.571 168.575 637.68C168.575 636.773 168.756 635.979 169.119 635.296C169.482 634.613 169.986 634.08 170.631 633.696C171.276 633.312 172.023 633.12 172.871 633.12C173.74 633.12 174.498 633.315 175.143 633.704C175.788 634.093 176.29 634.632 176.647 635.32C177.004 636.003 177.183 636.789 177.183 637.68C177.183 638.576 177.002 639.368 176.639 640.056C176.282 640.739 175.78 641.275 175.135 641.664C174.49 642.048 173.735 642.24 172.871 642.24ZM172.871 640.432C173.639 640.432 174.21 640.176 174.583 639.664C174.956 639.152 175.143 638.491 175.143 637.68C175.143 636.843 174.954 636.176 174.575 635.68C174.196 635.179 173.628 634.928 172.871 634.928C172.354 634.928 171.927 635.045 171.591 635.28C171.26 635.509 171.015 635.832 170.855 636.248C170.695 636.659 170.615 637.136 170.615 637.68C170.615 638.517 170.804 639.187 171.183 639.688C171.567 640.184 172.13 640.432 172.871 640.432ZM182.149 642V630.48H185.821C185.917 630.48 186.106 630.483 186.389 630.488C186.677 630.493 186.954 630.512 187.221 630.544C188.133 630.661 188.903 630.987 189.533 631.52C190.167 632.048 190.647 632.723 190.973 633.544C191.298 634.365 191.461 635.264 191.461 636.24C191.461 637.216 191.298 638.115 190.973 638.936C190.647 639.757 190.167 640.435 189.533 640.968C188.903 641.496 188.133 641.819 187.221 641.936C186.959 641.968 186.685 641.987 186.397 641.992C186.109 641.997 185.917 642 185.821 642H182.149ZM184.109 640.184H185.821C185.981 640.184 186.183 640.179 186.429 640.168C186.679 640.157 186.901 640.133 187.093 640.096C187.637 639.995 188.079 639.752 188.421 639.368C188.762 638.984 189.013 638.517 189.173 637.968C189.338 637.419 189.421 636.843 189.421 636.24C189.421 635.616 189.338 635.029 189.173 634.48C189.007 633.931 188.751 633.469 188.405 633.096C188.063 632.723 187.626 632.485 187.093 632.384C186.901 632.341 186.679 632.317 186.429 632.312C186.183 632.301 185.981 632.296 185.821 632.296H184.109V640.184ZM195.768 642.24C195.144 642.24 194.616 642.123 194.184 641.888C193.752 641.648 193.424 641.331 193.2 640.936C192.981 640.541 192.872 640.107 192.872 639.632C192.872 639.216 192.941 638.843 193.08 638.512C193.218 638.176 193.432 637.888 193.72 637.648C194.008 637.403 194.381 637.203 194.84 637.048C195.186 636.936 195.592 636.835 196.056 636.744C196.525 636.653 197.032 636.571 197.576 636.496C198.125 636.416 198.698 636.331 199.296 636.24L198.608 636.632C198.613 636.035 198.48 635.595 198.208 635.312C197.936 635.029 197.477 634.888 196.832 634.888C196.442 634.888 196.066 634.979 195.704 635.16C195.341 635.341 195.088 635.653 194.944 636.096L193.184 635.544C193.397 634.813 193.802 634.227 194.4 633.784C195.002 633.341 195.813 633.12 196.832 633.12C197.6 633.12 198.274 633.245 198.856 633.496C199.442 633.747 199.877 634.157 200.16 634.728C200.314 635.032 200.408 635.344 200.44 635.664C200.472 635.979 200.488 636.323 200.488 636.696V642H198.8V640.128L199.08 640.432C198.69 641.056 198.234 641.515 197.712 641.808C197.194 642.096 196.546 642.24 195.768 642.24ZM196.152 640.704C196.589 640.704 196.962 640.627 197.272 640.472C197.581 640.317 197.826 640.128 198.008 639.904C198.194 639.68 198.32 639.469 198.384 639.272C198.485 639.027 198.541 638.747 198.552 638.432C198.568 638.112 198.576 637.853 198.576 637.656L199.168 637.832C198.586 637.923 198.088 638.003 197.672 638.072C197.256 638.141 196.898 638.208 196.6 638.272C196.301 638.331 196.037 638.397 195.808 638.472C195.584 638.552 195.394 638.645 195.24 638.752C195.085 638.859 194.965 638.981 194.88 639.12C194.8 639.259 194.76 639.421 194.76 639.608C194.76 639.821 194.813 640.011 194.92 640.176C195.026 640.336 195.181 640.464 195.384 640.56C195.592 640.656 195.848 640.704 196.152 640.704ZM205.907 642.24C204.84 642.24 203.973 642 203.307 641.52C202.64 641.04 202.235 640.365 202.091 639.496L204.059 639.192C204.16 639.619 204.384 639.955 204.731 640.2C205.077 640.445 205.515 640.568 206.043 640.568C206.507 640.568 206.864 640.477 207.115 640.296C207.371 640.109 207.499 639.856 207.499 639.536C207.499 639.339 207.451 639.181 207.355 639.064C207.264 638.941 207.061 638.824 206.747 638.712C206.432 638.6 205.949 638.459 205.299 638.288C204.573 638.096 203.997 637.891 203.571 637.672C203.144 637.448 202.837 637.184 202.651 636.88C202.464 636.576 202.371 636.208 202.371 635.776C202.371 635.237 202.512 634.768 202.795 634.368C203.077 633.968 203.472 633.661 203.979 633.448C204.485 633.229 205.083 633.12 205.771 633.12C206.443 633.12 207.037 633.224 207.555 633.432C208.077 633.64 208.499 633.936 208.819 634.32C209.139 634.704 209.336 635.155 209.411 635.672L207.443 636.024C207.395 635.656 207.227 635.365 206.939 635.152C206.656 634.939 206.277 634.819 205.803 634.792C205.349 634.765 204.984 634.835 204.707 635C204.429 635.16 204.291 635.387 204.291 635.68C204.291 635.845 204.347 635.987 204.459 636.104C204.571 636.221 204.795 636.339 205.131 636.456C205.472 636.573 205.979 636.717 206.651 636.888C207.339 637.064 207.888 637.267 208.299 637.496C208.715 637.72 209.013 637.989 209.195 638.304C209.381 638.619 209.475 639 209.475 639.448C209.475 640.317 209.157 641 208.523 641.496C207.893 641.992 207.021 642.24 205.907 642.24ZM217.203 642V637.84C217.203 637.568 217.184 637.267 217.147 636.936C217.109 636.605 217.021 636.288 216.883 635.984C216.749 635.675 216.547 635.421 216.275 635.224C216.008 635.027 215.645 634.928 215.187 634.928C214.941 634.928 214.699 634.968 214.459 635.048C214.219 635.128 214 635.267 213.803 635.464C213.611 635.656 213.456 635.923 213.339 636.264C213.221 636.6 213.163 637.032 213.163 637.56L212.019 637.072C212.019 636.336 212.16 635.669 212.443 635.072C212.731 634.475 213.152 634 213.707 633.648C214.261 633.291 214.944 633.112 215.755 633.112C216.395 633.112 216.923 633.219 217.339 633.432C217.755 633.645 218.085 633.917 218.331 634.248C218.576 634.579 218.757 634.931 218.875 635.304C218.992 635.677 219.067 636.032 219.099 636.368C219.136 636.699 219.155 636.968 219.155 637.176V642H217.203ZM211.211 642V630.48H212.931V636.544H213.163V642H211.211ZM225.394 642.24C224.552 642.24 223.845 642.04 223.274 641.64C222.704 641.24 222.274 640.696 221.986 640.008C221.698 639.315 221.554 638.539 221.554 637.68C221.554 636.811 221.698 636.032 221.986 635.344C222.274 634.656 222.696 634.115 223.25 633.72C223.81 633.32 224.501 633.12 225.322 633.12C226.138 633.12 226.845 633.32 227.442 633.72C228.045 634.115 228.512 634.656 228.842 635.344C229.173 636.027 229.338 636.805 229.338 637.68C229.338 638.544 229.176 639.32 228.85 640.008C228.525 640.696 228.066 641.24 227.474 641.64C226.882 642.04 226.189 642.24 225.394 642.24ZM221.226 642V630.48H223.17V635.936H222.93V642H221.226ZM225.098 640.512C225.6 640.512 226.013 640.387 226.338 640.136C226.664 639.885 226.904 639.547 227.058 639.12C227.218 638.688 227.298 638.208 227.298 637.68C227.298 637.157 227.218 636.683 227.058 636.256C226.898 635.824 226.65 635.483 226.314 635.232C225.978 634.976 225.552 634.848 225.034 634.848C224.544 634.848 224.144 634.968 223.834 635.208C223.525 635.443 223.296 635.773 223.146 636.2C223.002 636.621 222.93 637.115 222.93 637.68C222.93 638.24 223.002 638.733 223.146 639.16C223.296 639.587 223.528 639.92 223.842 640.16C224.162 640.395 224.581 640.512 225.098 640.512ZM234.918 642.24C234.054 642.24 233.299 642.045 232.654 641.656C232.008 641.267 231.507 640.731 231.15 640.048C230.798 639.36 230.622 638.571 230.622 637.68C230.622 636.773 230.803 635.979 231.166 635.296C231.528 634.613 232.032 634.08 232.678 633.696C233.323 633.312 234.07 633.12 234.918 633.12C235.787 633.12 236.544 633.315 237.19 633.704C237.835 634.093 238.336 634.632 238.694 635.32C239.051 636.003 239.23 636.789 239.23 637.68C239.23 638.576 239.048 639.368 238.686 640.056C238.328 640.739 237.827 641.275 237.182 641.664C236.536 642.048 235.782 642.24 234.918 642.24ZM234.918 640.432C235.686 640.432 236.256 640.176 236.63 639.664C237.003 639.152 237.19 638.491 237.19 637.68C237.19 636.843 237 636.176 236.622 635.68C236.243 635.179 235.675 634.928 234.918 634.928C234.4 634.928 233.974 635.045 233.638 635.28C233.307 635.509 233.062 635.832 232.902 636.248C232.742 636.659 232.662 637.136 232.662 637.68C232.662 638.517 232.851 639.187 233.23 639.688C233.614 640.184 234.176 640.432 234.918 640.432ZM243.408 642.24C242.784 642.24 242.256 642.123 241.824 641.888C241.392 641.648 241.064 641.331 240.84 640.936C240.622 640.541 240.512 640.107 240.512 639.632C240.512 639.216 240.582 638.843 240.72 638.512C240.859 638.176 241.072 637.888 241.36 637.648C241.648 637.403 242.022 637.203 242.48 637.048C242.827 636.936 243.232 636.835 243.696 636.744C244.166 636.653 244.672 636.571 245.216 636.496C245.766 636.416 246.339 636.331 246.936 636.24L246.248 636.632C246.254 636.035 246.12 635.595 245.848 635.312C245.576 635.029 245.118 634.888 244.472 634.888C244.083 634.888 243.707 634.979 243.344 635.16C242.982 635.341 242.728 635.653 242.584 636.096L240.824 635.544C241.038 634.813 241.443 634.227 242.04 633.784C242.643 633.341 243.454 633.12 244.472 633.12C245.24 633.12 245.915 633.245 246.496 633.496C247.083 633.747 247.518 634.157 247.8 634.728C247.955 635.032 248.048 635.344 248.08 635.664C248.112 635.979 248.128 636.323 248.128 636.696V642H246.44V640.128L246.72 640.432C246.331 641.056 245.875 641.515 245.352 641.808C244.835 642.096 244.187 642.24 243.408 642.24ZM243.792 640.704C244.23 640.704 244.603 640.627 244.912 640.472C245.222 640.317 245.467 640.128 245.648 639.904C245.835 639.68 245.96 639.469 246.024 639.272C246.126 639.027 246.182 638.747 246.192 638.432C246.208 638.112 246.216 637.853 246.216 637.656L246.808 637.832C246.227 637.923 245.728 638.003 245.312 638.072C244.896 638.141 244.539 638.208 244.24 638.272C243.942 638.331 243.678 638.397 243.448 638.472C243.224 638.552 243.035 638.645 242.88 638.752C242.726 638.859 242.606 638.981 242.52 639.12C242.44 639.259 242.4 639.421 242.4 639.608C242.4 639.821 242.454 640.011 242.56 640.176C242.667 640.336 242.822 640.464 243.024 640.56C243.232 640.656 243.488 640.704 243.792 640.704ZM250.211 642V633.36H251.915V635.464L251.707 635.192C251.814 634.904 251.955 634.643 252.131 634.408C252.313 634.168 252.529 633.971 252.779 633.816C252.993 633.672 253.227 633.56 253.483 633.48C253.745 633.395 254.011 633.344 254.283 633.328C254.555 633.307 254.819 633.317 255.075 633.36V635.16C254.819 635.085 254.523 635.061 254.187 635.088C253.857 635.115 253.558 635.208 253.291 635.368C253.025 635.512 252.806 635.696 252.635 635.92C252.47 636.144 252.347 636.4 252.267 636.688C252.187 636.971 252.147 637.277 252.147 637.608V642H250.211ZM259.91 642.24C259.115 642.24 258.422 642.04 257.83 641.64C257.238 641.24 256.779 640.696 256.454 640.008C256.128 639.32 255.966 638.544 255.966 637.68C255.966 636.805 256.128 636.027 256.454 635.344C256.784 634.656 257.251 634.115 257.854 633.72C258.456 633.32 259.166 633.12 259.982 633.12C260.803 633.12 261.491 633.32 262.046 633.72C262.606 634.115 263.03 634.656 263.318 635.344C263.606 636.032 263.75 636.811 263.75 637.68C263.75 638.539 263.606 639.315 263.318 640.008C263.03 640.696 262.6 641.24 262.03 641.64C261.459 642.04 260.752 642.24 259.91 642.24ZM260.206 640.512C260.723 640.512 261.139 640.395 261.454 640.16C261.774 639.92 262.006 639.587 262.15 639.16C262.299 638.733 262.374 638.24 262.374 637.68C262.374 637.115 262.299 636.621 262.15 636.2C262.006 635.773 261.779 635.443 261.47 635.208C261.16 634.968 260.76 634.848 260.27 634.848C259.752 634.848 259.326 634.976 258.99 635.232C258.654 635.483 258.406 635.824 258.246 636.256C258.086 636.683 258.006 637.157 258.006 637.68C258.006 638.208 258.083 638.688 258.238 639.12C258.398 639.547 258.64 639.885 258.966 640.136C259.291 640.387 259.704 640.512 260.206 640.512ZM262.374 642V635.936H262.134V630.48H264.078V642H262.374Z" fill="white"/>
<path d="M283.479 636.833H273.333V635.167H283.479L278.813 630.5L280 629.333L286.667 636L280 642.667L278.813 641.5L283.479 636.833Z" fill="white"/>
</g>
<defs>
<filter id="filter0_f_38_228" x="-59" y="-188.39" width="600" height="600" filterUnits="userSpaceOnUse" color-interpolation-filters="sRGB">
<feFlood flood-opacity="0" result="BackgroundImageFix"/>
<feBlend mode="normal" in="SourceGraphic" in2="BackgroundImageFix" result="shape"/>
<feGaussianBlur stdDeviation="50" result="effect1_foregroundBlur_38_228"/>
</filter>
<filter id="filter1_f_38_228" x="-99.5" y="548.19" width="460" height="460" filterUnits="userSpaceOnUse" color-interpolation-filters="sRGB">
<feFlood flood-opacity="0" result="BackgroundImageFix"/>
<feBlend mode="normal" in="SourceGraphic" in2="BackgroundImageFix" result="shape"/>
<feGaussianBlur stdDeviation="40" result="effect1_foregroundBlur_38_228"/>
</filter>
<filter id="filter2_dd_38_228" x="141" y="188" width="120" height="107" filterUnits="userSpaceOnUse" color-interpolation-filters="sRGB">
<feFlood flood-opacity="0" result="BackgroundImageFix"/>
<feColorMatrix in="SourceAlpha" type="matrix" values="0 0 0 0 0 0 0 0 0 0 0 0 0 0 0 0 0 0 127 0" result="hardAlpha"/>
<feMorphology radius="6" operator="erode" in="SourceAlpha" result="effect1_dropShadow_38_228"/>
<feOffset dy="8"/>
<feGaussianBlur stdDeviation="5"/>
<feComposite in2="hardAlpha" operator="out"/>
<feColorMatrix type="matrix" values="0 0 0 0 0 0 0 0 0 0.0666667 0 0 0 0 0.227451 0 0 0 0.2 0"/>
<feBlend mode="normal" in2="BackgroundImageFix" result="effect1_dropShadow_38_228"/>
<feColorMatrix in="SourceAlpha" type="matrix" values="0 0 0 0 0 0 0 0 0 0 0 0 0 0 0 0 0 0 127 0" result="hardAlpha"/>
<feMorphology radius="5" operator="erode" in="SourceAlpha" result="effect2_dropShadow_38_228"/>
<feOffset dy="20"/>
<feGaussianBlur stdDeviation="12.5"/>
<feComposite in2="hardAlpha" operator="out"/>
<feColorMatrix type="matrix" values="0 0 0 0 0 0 0 0 0 0.0666667 0 0 0 0 0.227451 0 0 0 0.2 0"/>
<feBlend mode="normal" in2="effect1_dropShadow_38_228" result="effect2_dropShadow_38_228"/>
<feBlend mode="normal" in="SourceGraphic" in2="effect2_dropShadow_38_228" result="shape"/>
</filter>
<filter id="filter3_d_38_228" x="-4" y="367" width="410" height="369" filterUnits="userSpaceOnUse" color-interpolation-filters="sRGB">
<feFlood flood-opacity="0" result="BackgroundImageFix"/>
<feColorMatrix in="SourceAlpha" type="matrix" values="0 0 0 0 0 0 0 0 0 0 0 0 0 0 0 0 0 0 127 0" result="hardAlpha"/>
<feMorphology radius="4" operator="erode" in="SourceAlpha" result="effect1_dropShadow_38_228"/>
<feOffset dy="12"/>
<feGaussianBlur stdDeviation="16"/>
<feComposite in2="hardAlpha" operator="out"/>
<feColorMatrix type="matrix" values="0 0 0 0 0 0 0 0 0 0.0666667 0 0 0 0 0.227451 0 0 0 0.06 0"/>
<feBlend mode="normal" in2="BackgroundImageFix" result="effect1_dropShadow_38_228"/>
<feBlend mode="normal" in="SourceGraphic" in2="effect1_dropShadow_38_228" result="shape"/>
</filter>
<filter id="filter4_dd_38_228" x="44" y="606" width="314" height="80" filterUnits="userSpaceOnUse" color-interpolation-filters="sRGB">
<feFlood flood-opacity="0" result="BackgroundImageFix"/>
<feColorMatrix in="SourceAlpha" type="matrix" values="0 0 0 0 0 0 0 0 0 0 0 0 0 0 0 0 0 0 127 0" result="hardAlpha"/>
<feMorphology radius="4" operator="erode" in="SourceAlpha" result="effect1_dropShadow_38_228"/>
<feOffset dy="4"/>
<feGaussianBlur stdDeviation="3"/>
<feComposite in2="hardAlpha" operator="out"/>
<feColorMatrix type="matrix" values="0 0 0 0 0 0 0 0 0 0.0666667 0 0 0 0 0.227451 0 0 0 0.2 0"/>
<feBlend mode="normal" in2="BackgroundImageFix" result="effect1_dropShadow_38_228"/>
<feColorMatrix in="SourceAlpha" type="matrix" values="0 0 0 0 0 0 0 0 0 0 0 0 0 0 0 0 0 0 127 0" result="hardAlpha"/>
<feMorphology radius="3" operator="erode" in="SourceAlpha" result="effect2_dropShadow_38_228"/>
<feOffset dy="10"/>
<feGaussianBlur stdDeviation="7.5"/>
<feComposite in2="hardAlpha" operator="out"/>
<feColorMatrix type="matrix" values="0 0 0 0 0 0 0 0 0 0.0666667 0 0 0 0 0.227451 0 0 0 0.2 0"/>
<feBlend mode="normal" in2="effect1_dropShadow_38_228" result="effect2_dropShadow_38_228"/>
<feBlend mode="normal" in="SourceGraphic" in2="effect2_dropShadow_38_228" result="shape"/>
</filter>
<linearGradient id="paint0_linear_38_228" x1="112.853" y1="557.133" x2="269.615" y2="732.343" gradientUnits="userSpaceOnUse">
<stop stop-color="#00113A"/>
</linearGradient>
<clipPath id="clip0_38_228">
<rect width="402" height="884" fill="white"/>
</clipPath>
<clipPath id="clip1_38_228">
<rect width="230" height="19" fill="white" transform="translate(100 452)"/>
</clipPath>
<clipPath id="clip2_38_228">
<rect width="202" height="19" fill="white" transform="translate(100 549)"/>
</clipPath>
</defs>
</svg>
